<?xml version="1.0" encoding="UTF-8" standalone="no"?>
<svg
   xmlns:osb="http://www.openswatchbook.org/uri/2009/osb"
   xmlns:dc="http://purl.org/dc/elements/1.1/"
   xmlns:cc="http://creativecommons.org/ns#"
   xmlns:rdf="http://www.w3.org/1999/02/22-rdf-syntax-ns#"
   xmlns:svg="http://www.w3.org/2000/svg"
   xmlns="http://www.w3.org/2000/svg"
   xmlns:sodipodi="http://sodipodi.sourceforge.net/DTD/sodipodi-0.dtd"
   xmlns:inkscape="http://www.inkscape.org/namespaces/inkscape"
   version="1.1"
   id="svg823"
   sodipodi:docname="logo.svg">

  <g id="myG">
  <path
     style="opacity:0.81800011;fill:none;fill-opacity:1;stroke:#e30000;stroke-width:1.5;stroke-linecap:round;stroke-linejoin:round;stroke-miterlimit:4;stroke-dasharray:none;stroke-opacity:1;paint-order:stroke fill markers"
     id="path8823"
     sodipodi:type="arc"
     sodipodi:cx="48.841755"
     sodipodi:cy="50.83799"
     sodipodi:rx="44.692738"
     sodipodi:ry="44.692738"
     sodipodi:start="0"
     sodipodi:end="6.2710902"
     sodipodi:open="true"
     d="M 93.534492,50.83799 A 44.692738,44.692738 0 0 1 48.976896,95.530523 44.692738,44.692738 0 0 1 4.1498346,51.10827 44.692738,44.692738 0 0 1 48.436338,6.1470911 44.692738,44.692738 0 0 1 93.531223,50.29744" />
  <path
     style="opacity:0.81800022;fill:none;fill-opacity:1;stroke:#e30000;stroke-width:1.6;stroke-linecap:round;stroke-linejoin:round;stroke-miterlimit:4;stroke-dasharray:none;stroke-opacity:1;paint-order:stroke fill markers"
     id="path8823-5"
     sodipodi:type="arc"
     sodipodi:cx="49.089916"
     sodipodi:cy="51.110096"
     sodipodi:rx="40.595901"
     sodipodi:ry="40.595901"
     sodipodi:start="0"
     sodipodi:end="6.2710902"
     sodipodi:open="true"
     d="M 89.685818,51.110096 A 40.595901,40.595901 0 0 1 49.212669,91.705812 40.595901,40.595901 0 0 1 8.4947571,51.3556 40.595901,40.595901 0 0 1 48.721662,10.515865 40.595901,40.595901 0 0 1 89.682848,50.619096" />
  <path
     style="fill:#e30000;stroke:#000000;stroke-width:1px;stroke-linecap:butt;stroke-linejoin:miter;stroke-opacity:1;fill-opacity:1"
     d="m 22.625698,53.351955 3.445066,2.048417 23.277467,-40.316573 5.027933,8.472998 3.3054,-2.141527 -8.147113,-14.0595903 z"
     id="path8754"
     inkscape:connector-curvature="0"
     sodipodi:nodetypes="ccccccc" />
  <path
     style="fill:#e30000;stroke:#000000;stroke-width:1px;stroke-linecap:butt;stroke-linejoin:round;stroke-opacity:1;fill-opacity:1"
     d="m 48.646598,9.4972089 0.134017,-8.4048222 c 0,0 -18.253991,-1.56297076 -22.849516,-0.67339176 C 23.122309,0.96270594 4.7063224,-0.34831115 2.5139664,1.4897578 0.41533842,3.2492448 2.6029536,18.017367 1.4423026,20.497876 -0.12871245,23.855403 1.1473388,37.823399 1.3035378,41.527002 c 0.129525,3.071149 -0.99860069,14.672156 0.4940943,17.359273 1.473165,2.651959 -2.70387555,35.841357 -0.2147646,37.57555 2.790068,1.943873 13.9664805,0.18622 13.9664805,0.18622 l 9.124768,0.04655 23.417131,0.581939 c 0,0 -1.749422,-15.105312 -0.325884,-17.295159 1.531225,-2.355504 0.46555,-15.735568 0.46555,-15.735568 0.39687,0.340174 2.093207,-17.620723 -3.724395,-20.111732 -2.945349,-1.261154 5.207054,-3.686614 3.385041,-6.322113 -1.981552,-2.866269 -1.163857,-2.901646 -1.068258,-6.384878 0.10564,-3.849094 -1.057795,-2.946678 1.361956,-5.941922 1.974627,-2.444256 -3.578884,-5.64512 -0.550436,-6.483 3.471956,-0.960585 1.011777,-9.5049581 1.011777,-9.5049581 z"
     id="path8731"
     inkscape:connector-curvature="0"
     sodipodi:nodetypes="ccsssssscccscsssssc">
     <animate attributeName='d'
        values='m 48.646598,9.4972089 0.134017,-8.4048222 c 0,0 -18.253991,-1.56297076 -22.849516,-0.67339176 C 23.122309,0.96270594 4.7063224,-0.34831115 2.5139664,1.4897578 0.41533842,3.2492448 2.6029536,18.017367 1.4423026,20.497876 -0.12871245,23.855403 1.1473388,37.823399 1.3035378,41.527002 c 0.129525,3.071149 -0.99860069,14.672156 0.4940943,17.359273 1.473165,2.651959 -2.70387555,35.841357 -0.2147646,37.57555 2.790068,1.943873 13.9664805,0.18622 13.9664805,0.18622 l 9.124768,0.04655 23.417131,0.581939 c 0,0 -1.749422,-15.105312 -0.325884,-17.295159 1.531225,-2.355504 0.46555,-15.735568 0.46555,-15.735568 0.39687,0.340174 2.093207,-17.620723 -3.724395,-20.111732 -2.945349,-1.261154 5.207054,-3.686614 3.385041,-6.322113 -1.981552,-2.866269 -1.163857,-2.901646 -1.068258,-6.384878 0.10564,-3.849094 -1.057795,-2.946678 1.361956,-5.941922 1.974627,-2.444256 -3.578884,-5.64512 -0.550436,-6.483 3.471956,-0.960585 1.011777,-9.5049581 1.011777,-9.5049581 z;
                m 37.473414,25.139667 2.182434,-3.563109 c -0.0534,-0.106803 -8.943004,-1.376751 -13.538529,-0.487172 -2.80879,0.543711 -5.396099,2.02599 -7.588455,3.864059 -2.098628,1.759487 -3.960392,3.944072 -5.121043,6.424581 -1.571015,3.357527 -2.390836,7.190252 -2.234637,10.893855 0.129525,3.071149 1.114382,6.15832 2.607077,8.845437 1.473165,2.651959 3.56303,5.062828 6.052141,6.797021 2.790068,1.943873 9.497207,3.724395 9.497207,3.724395 l -2.048417,6.378026 4.422718,0.02328 c 0,0 0.857654,-4.304567 2.281192,-6.494414 1.531225,-2.355504 6.052142,-5.865922 6.052142,-5.865922 0.39687,0.340174 -8.521318,3.422108 -14.33892,0.931099 -2.945349,-1.261154 -5.719886,-3.323533 -7.541899,-5.959032 -1.981552,-2.866269 -3.261335,-6.479524 -3.165736,-9.962756 0.10564,-3.849094 1.677083,-7.805501 4.096834,-10.800745 1.974627,-2.444256 4.885891,-4.283163 7.914339,-5.121043 3.471956,-0.960585 10.471552,0.37244 10.471552,0.37244 z'
        keyTimes='0; 1'
        dur='2s'
        fill='freeze'
        begin='2s'

      /> 
</path>
  <path
     style="fill:#e30000;stroke:#000000;stroke-width:1px;stroke-linecap:butt;stroke-linejoin:round;stroke-opacity:1;fill-opacity:1"
     d="m 99.022501,89.378739 -0.08453,-10.428294 c 0,0 0.303719,-12.683149 1.114286,-17.193282 0.50605,-2.815822 -0.227779,-11.370387 -0.821456,-14.16904 C 98.662517,44.909114 101.22914,32.973871 99.583877,30.784548 97.356902,27.821162 101.79939,3.1542435 98.455969,1.5534215 95.683495,0.22596847 89.998276,0.8881109 86.924914,0.9445569 83.891765,1.0002969 72.588293,-0.33474324 69.888523,1.0488558 66.86233,2.5997518 59.348111,1.5406474 59.348111,1.5406474 L 48.780615,1.0923867 25.377936,0.83282532 c 0,0 -1.055795,43.17301268 0.209409,45.45799468 1.360921,2.457831 0.289575,48.69351 0.289575,48.69351 -0.486672,0.190712 21.400854,5.56578 26.331484,1.598603 2.49629,-2.00851 3.697605,0.08168 6.88,-0.289774 3.461043,-0.403974 2.946282,-1.413569 5.976909,0.306124 3.348953,1.900316 4.68439,-3.975032 6.193029,-0.432339 1.231115,2.891004 8.267457,-4.040258 7.585491,-0.972939 -0.781825,3.516525 14.545516,-0.461449 14.219631,0.143766 z"
     id="path8731-0"
     inkscape:connector-curvature="0"
     sodipodi:nodetypes="ccsssssscccscsssssc" > 
      <animate attributeName='d'
        values='m 99.022501,89.378739 -0.08453,-10.428294 c 0,0 0.303719,-12.683149 1.114286,-17.193282 0.50605,-2.815822 -0.227779,-11.370387 -0.821456,-14.16904 C 98.662517,44.909114 101.22914,32.973871 99.583877,30.784548 97.356902,27.821162 101.79939,3.1542435 98.455969,1.5534215 95.683495,0.22596847 89.998276,0.8881109 86.924914,0.9445569 83.891765,1.0002969 72.588293,-0.33474324 69.888523,1.0488558 66.86233,2.5997518 59.348111,1.5406474 59.348111,1.5406474 L 48.780615,1.0923867 25.377936,0.83282532 c 0,0 -1.055795,43.17301268 0.209409,45.45799468 1.360921,2.457831 0.289575,48.69351 0.289575,48.69351 -0.486672,0.190712 21.400854,5.56578 26.331484,1.598603 2.49629,-2.00851 3.697605,0.08168 6.88,-0.289774 3.461043,-0.403974 2.946282,-1.413569 5.976909,0.306124 3.348953,1.900316 4.68439,-3.975032 6.193029,-0.432339 1.231115,2.891004 8.267457,-4.040258 7.585491,-0.972939 -0.781825,3.516525 14.545516,-0.461449 14.219631,0.143766 z;
                m 77.97967,54.555648 2.33633,4.096845 c 0,0 6.82141,-8.213875 7.63198,-12.724008 0.506051,-2.815822 0.517097,-5.783795 -0.07658,-8.582448 -0.568287,-2.679009 -1.62312,-5.348449 -3.268384,-7.537772 -2.226975,-2.963386 -5.226188,-5.486601 -8.569605,-7.087423 -2.772474,-1.327453 -5.960642,-1.907219 -9.034004,-1.850773 -3.033149,0.05574 -6.142953,0.769117 -8.842723,2.152716 -3.026193,1.550896 -7.747115,6.637043 -7.747115,6.637043 l -4.99568,-4.960441 -1.972633,3.50774 c 0,0 3.599698,3.321988 4.864902,5.60697 1.360921,2.457831 2.337992,8.097607 2.337992,8.097607 -0.486672,0.190712 0.978978,-9.130462 5.909608,-13.097641 2.49629,-2.00851 5.619827,-3.490054 8.802222,-3.861505 3.461043,-0.403974 7.252183,0.162362 10.28281,1.882055 3.348953,1.900316 6.10451,5.145238 7.613149,8.687931 1.231115,2.891004 1.488018,6.324812 0.806052,9.392131 -0.781825,3.516525 -5.752436,9.035758 -6.078321,9.640973 z'
        keyTimes='0; 1'
        dur='2s'
        fill='freeze'
        begin='2s'

      /> 
</path>
  <path
     style="fill:#e30000;stroke:#000000;stroke-width:1px;stroke-linecap:round;stroke-linejoin:round;stroke-opacity:1;paint-order:stroke fill markers;fill-opacity:1"
     d="m 31.915224,75.126109 -4.63454,-0.02649 c -0.06583,0.09963 3.070081,8.086818 6.465343,11.164228 2.119785,1.921313 4.630921,3.503464 7.318912,4.483065 2.573076,0.937718 5.395865,1.457762 8.124373,1.222661 3.693211,-0.318228 7.42236,-1.524602 10.551675,-3.511679 2.594926,-1.64775 4.776067,-4.044242 6.356831,-6.680515 1.560082,-2.60178 2.603023,-5.617089 2.860324,-8.639818 C 69.246551,69.749356 67.434961,63.05054 67.434961,63.05054 l 6.627929,-1.543892 -2.107447,-3.641071 c 0,0 -4.320634,1.337641 -6.928865,1.199742 -2.80554,-0.148325 -8.106109,-2.308345 -8.106109,-2.308345 0.09617,-0.513788 7.224293,5.668623 7.975818,11.952319 0.380483,3.181323 -0.01833,6.615332 -1.389728,9.510994 -1.491483,3.149206 -3.980763,6.06416 -7.045133,7.722981 -3.38623,1.833057 -7.598299,2.450353 -11.402131,1.852403 -3.104104,-0.487946 -6.152273,-2.089722 -8.392124,-4.293495 -2.567874,-2.526507 -4.751947,-8.376067 -4.751947,-8.376067 z"
     id="path8731-6"
     inkscape:connector-curvature="0"
     sodipodi:nodetypes="ccsssssscccscssssscc" />
  <path
     style="fill:#e30000;stroke:#000000;stroke-width:1px;stroke-linecap:butt;stroke-linejoin:miter;stroke-opacity:1;fill-opacity:1"
     d="m 60.935196,27.871153 -3.40341,2.098968 22.8109,39.432626 -9.308947,0.108685 -0.02913,3.961159 15.937781,-0.04452 z"
     id="path8754-2"
     inkscape:connector-curvature="0"
     sodipodi:nodetypes="ccccccc" />
  <path
     style="fill:#e30000;stroke:#000000;stroke-width:1px;stroke-linecap:butt;stroke-linejoin:miter;stroke-opacity:1;fill-opacity:1"
     d="m 63.433649,73.532385 0.117288,-3.974802 -45.730926,-5.9e-4 4.56035,-8.116137 -3.415878,-2.00586 -7.93033,13.824783 z"
     id="path8754-7"
     inkscape:connector-curvature="0"
     sodipodi:nodetypes="ccccccc" />

      <animateTransform
    attribyteType='XML'
    attributeName='transform'
    type='rotate'
    values='360 49, 49; -40 49, 49; 0 49, 49'
    keyTimes='0; 0.8; 1'
    keySplines='0,0,0.89,1; 0,0,0.89,1; 0,0,0.89,1'
    dur='2s'
    repeatCount='indefinite'
    fill='freeze'
    begin='6s'

/>


  </g>

</svg>
