<?xml version="1.0" standalone="no"?>
<!DOCTYPE svg PUBLIC "-//W3C//DTD SVG 20010904//EN"
 "http://www.w3.org/TR/2001/REC-SVG-20010904/DTD/svg10.dtd">
<svg version="1.0" xmlns="http://www.w3.org/2000/svg"
 width="700.000000pt" height="700.000000pt" viewBox="0 0 700.000000 700.000000"
 preserveAspectRatio="xMidYMid meet">
<metadata>
Created by potrace 1.11, written by Peter Selinger 2001-2013
</metadata>
<g transform="translate(0.000000,700.000000) scale(0.100000,-0.100000)"
fill="#000000" stroke="none">
<path d="M3586 6823 c-4 -4 -58 -6 -121 -6 -79 1 -113 -2 -108 -9 4 -7 1 -8
-8 -3 -15 10 -134 5 -134 -5 0 -1 -22 -2 -50 -3 -30 -1 -55 -8 -63 -17 -8 -8
-11 -9 -7 -2 7 15 -11 16 -20 2 -5 -8 -11 -8 -19 -1 -7 6 -16 7 -20 3 -4 -4
-17 -7 -29 -8 -12 0 -40 -4 -62 -9 -54 -12 -57 -13 -83 -14 -15 -1 -21 -5 -16
-13 4 -6 3 -8 -3 -5 -12 8 -113 -9 -152 -25 -30 -13 -37 -14 -69 -16 -15 -1
-21 -6 -16 -14 4 -7 3 -8 -4 -4 -13 8 -123 -23 -133 -37 -3 -5 -10 -8 -15 -7
-15 2 -94 -22 -100 -31 -3 -5 -14 -9 -25 -9 -13 0 -18 -4 -13 -12 4 -6 3 -8
-3 -5 -10 6 -133 -38 -143 -52 -3 -3 -12 -7 -20 -9 -34 -6 -69 -25 -64 -33 3
-5 2 -8 -3 -7 -13 4 -83 -24 -83 -34 0 -4 -3 -8 -7 -7 -16 2 -53 -14 -53 -23
0 -5 -5 -6 -10 -3 -5 3 -10 1 -10 -5 0 -6 -4 -9 -9 -6 -5 4 -11 3 -13 -1 -1
-5 -23 -19 -48 -32 -94 -50 -290 -186 -285 -198 2 -7 -1 -15 -7 -19 -7 -4 -8
-3 -4 4 14 24 -23 11 -43 -14 -11 -14 -22 -24 -25 -22 -21 13 -464 -402 -451
-423 4 -5 2 -8 -3 -7 -15 4 -53 -44 -47 -59 2 -8 0 -11 -5 -8 -6 4 -17 -1 -26
-9 -8 -9 -13 -16 -9 -16 3 0 -8 -14 -25 -30 -17 -17 -28 -35 -25 -40 4 -6 1
-9 -7 -8 -7 2 -12 -5 -12 -14 1 -10 -2 -15 -7 -13 -4 3 -16 -7 -26 -22 -10
-15 -20 -30 -23 -33 -21 -18 -69 -103 -64 -112 4 -6 3 -8 -3 -5 -25 16 -285
-455 -267 -485 4 -7 4 -10 -1 -6 -11 10 -58 -89 -49 -104 4 -6 3 -8 -2 -5 -15
9 -64 -139 -50 -153 8 -8 7 -10 -5 -5 -12 5 -18 -2 -24 -27 -4 -18 -9 -35 -10
-38 -1 -3 -5 -12 -8 -20 -7 -17 -38 -127 -41 -144 -1 -6 -4 -15 -7 -21 -4 -5
-5 -20 -4 -32 1 -12 -1 -20 -5 -18 -3 2 -12 -23 -19 -56 -9 -47 -9 -64 0 -75
9 -12 9 -13 -3 -9 -12 5 -17 -5 -22 -45 -4 -28 -4 -56 0 -62 4 -7 3 -8 -4 -4
-8 5 -12 -1 -13 -16 0 -13 -2 -32 -5 -43 -5 -23 -13 -106 -19 -180 -2 -27 -6
-76 -9 -108 -8 -88 -10 -183 -3 -194 3 -5 2 -15 -3 -23 -6 -10 -3 -21 7 -33
16 -17 16 -17 -2 -11 -11 5 -16 4 -12 -3 4 -6 9 -66 12 -134 3 -81 9 -126 18
-131 9 -6 9 -8 -2 -8 -8 0 -11 -6 -6 -17 3 -10 9 -43 12 -73 2 -30 9 -61 15
-67 7 -9 7 -13 -1 -13 -7 0 -10 -4 -6 -9 5 -8 18 -68 31 -141 2 -14 6 -34 9
-46 3 -12 7 -39 11 -60 3 -21 10 -47 15 -56 5 -9 9 -26 9 -37 0 -12 5 -21 11
-21 5 0 8 -4 5 -9 -3 -5 3 -37 15 -72 22 -69 27 -87 28 -107 1 -7 6 -10 12 -6
7 4 10 1 7 -7 -5 -15 38 -147 53 -164 5 -5 9 -17 9 -27 0 -10 4 -18 10 -18 5
0 9 -3 8 -7 -4 -14 44 -123 54 -123 5 0 7 -4 3 -9 -6 -11 15 -61 27 -61 4 0 7
-3 6 -7 -5 -16 55 -123 65 -116 6 3 7 1 3 -5 -4 -6 7 -37 25 -69 51 -92 179
-283 190 -283 6 0 7 -4 4 -10 -3 -5 1 -10 9 -10 9 0 15 -3 15 -7 -3 -18 2 -29
25 -55 12 -15 27 -24 31 -20 5 4 5 2 2 -4 -7 -12 17 -46 76 -107 20 -22 37
-43 37 -47 0 -13 37 -40 44 -33 4 5 7 3 6 -2 -5 -23 1 -34 21 -40 11 -4 18 -9
16 -12 -3 -2 23 -32 58 -66 81 -79 91 -87 101 -79 4 4 4 2 0 -5 -3 -6 -1 -17
6 -23 7 -6 24 -20 38 -31 14 -11 38 -32 53 -45 15 -14 32 -22 38 -19 5 4 8 1
7 -5 -3 -13 149 -138 169 -139 6 -1 13 -4 15 -8 5 -13 76 -63 87 -63 6 0 11
-5 11 -11 0 -6 7 -8 16 -5 8 3 12 2 9 -4 -3 -6 2 -13 12 -17 10 -4 30 -15 45
-26 14 -11 31 -17 36 -13 6 3 14 1 18 -5 5 -8 3 -9 -7 -4 -10 5 -11 5 -4 -3
10 -10 93 -56 185 -102 68 -34 78 -39 98 -49 9 -4 32 -16 50 -25 18 -10 40
-15 48 -12 8 3 13 2 10 -3 -8 -12 122 -63 136 -55 7 4 8 2 4 -4 -6 -11 5 -15
30 -11 4 0 10 -3 13 -8 10 -14 172 -64 184 -56 7 3 9 2 4 -2 -6 -8 120 -47
193 -60 47 -8 98 -22 110 -30 9 -6 11 -4 5 6 -7 12 -6 12 7 1 8 -7 35 -14 59
-16 24 -2 51 -7 59 -10 8 -3 35 -8 60 -10 25 -3 56 -7 70 -10 51 -12 210 -20
405 -20 227 -1 366 9 377 27 6 9 8 9 8 -1 0 -8 7 -11 18 -8 9 3 37 8 62 11 25
4 48 12 52 18 6 9 8 9 8 0 0 -8 9 -9 30 -3 17 5 30 6 30 2 0 -3 5 -1 11 5 6 6
18 9 27 6 11 -5 13 -2 7 8 -6 11 -5 11 5 2 8 -8 20 -9 36 -3 13 5 24 7 24 3 0
-4 7 2 16 13 8 10 13 13 9 7 -7 -15 11 -18 20 -3 4 6 10 8 14 6 4 -3 38 2 75
11 53 12 66 18 61 30 -4 12 -2 13 8 5 20 -17 100 6 92 26 -4 11 -2 12 7 4 14
-12 88 6 88 21 0 5 4 5 10 2 5 -3 23 1 40 10 16 8 32 15 35 15 21 -1 26 1 22
8 -3 4 5 8 17 8 30 2 238 93 252 110 6 7 14 11 17 8 6 -6 194 91 212 109 7 7
5 7 -4 2 -9 -5 -12 -4 -7 3 4 6 14 8 22 5 9 -3 20 0 25 8 4 8 12 14 16 14 4 1
26 12 48 26 22 14 50 31 63 38 12 7 20 17 16 23 -5 7 -2 8 6 3 8 -5 18 -1 27
10 7 11 13 15 13 11 0 -4 14 4 31 18 17 14 35 26 41 26 6 0 7 7 4 16 -3 9 -2
12 4 9 14 -9 112 64 103 77 -3 7 -1 8 6 4 7 -5 24 4 42 23 16 17 29 28 29 24
0 -4 16 8 35 27 19 18 31 38 28 44 -3 6 -3 8 2 4 12 -11 45 10 45 29 0 9 3 13
7 10 3 -4 17 3 30 15 19 17 21 24 10 37 -10 14 -10 14 4 4 13 -11 28 1 97 73
45 46 82 86 82 89 0 2 12 17 28 33 15 15 38 43 52 61 14 18 40 49 57 69 18 20
33 42 33 49 0 7 8 17 18 22 9 6 13 11 9 11 -5 0 -1 7 7 16 9 8 14 20 10 25 -3
5 -2 8 3 7 4 -2 8 0 8 4 0 4 10 15 23 23 12 9 20 21 17 26 -4 5 -2 9 3 9 6 0
35 42 65 93 72 122 88 153 79 162 -4 3 -2 5 3 3 6 -2 11 2 13 7 2 6 10 18 19
27 8 9 12 22 7 29 -4 7 -3 10 3 6 11 -7 36 43 36 69 0 7 4 11 8 9 9 -6 21 24
14 35 -3 4 2 11 11 14 8 3 13 10 10 15 -3 5 1 14 9 21 8 7 15 18 15 25 0 6 7
26 16 43 8 18 12 37 8 44 -4 7 -3 10 1 5 11 -9 47 83 40 101 -3 7 -1 11 4 7 8
-4 29 40 32 67 0 4 11 37 24 73 16 44 20 65 12 65 -8 0 -7 3 2 9 8 5 14 22 15
39 0 17 4 28 8 26 10 -6 31 93 22 107 -4 7 -3 9 3 6 6 -4 13 4 15 18 3 14 1
22 -4 19 -5 -4 -4 3 3 14 11 17 10 24 -2 39 -13 16 -12 17 2 5 15 -11 18 -6
28 53 6 36 14 84 17 108 3 23 8 53 10 67 11 57 11 69 0 63 -7 -5 -7 -2 1 8 17
21 21 85 4 81 -7 -1 -10 2 -6 8 3 6 11 8 16 5 5 -4 9 11 9 32 3 269 2 441 -4
503 -4 41 -7 92 -8 113 -1 20 -4 37 -8 37 -3 0 -6 12 -6 28 0 51 -15 153 -22
148 -4 -2 -7 9 -6 26 0 17 -5 56 -13 87 -7 31 -15 69 -19 86 -3 16 -9 32 -14
35 -5 3 -8 12 -8 20 2 36 -3 51 -14 44 -7 -5 -8 -3 -4 5 9 15 -24 151 -37 151
-4 0 -6 4 -3 8 3 5 -1 19 -8 33 -14 27 -16 34 -16 50 0 5 -3 8 -7 6 -5 -3 -8
7 -9 21 -1 30 -24 94 -37 103 -5 3 -8 9 -7 13 3 11 -43 120 -53 127 -5 3 -9 9
-8 12 1 17 -22 67 -31 67 -5 0 -7 3 -5 8 8 11 -49 113 -58 104 -5 -4 -5 -1 0
7 4 7 4 16 -1 20 -5 3 -25 37 -44 74 -19 38 -41 71 -47 74 -7 3 -11 9 -8 13 3
5 0 12 -5 15 -6 4 -15 18 -21 32 -5 14 -14 21 -21 17 -7 -4 -8 -3 -4 5 9 14
-48 94 -59 83 -5 -4 -5 -2 -1 5 6 11 -47 92 -77 118 -7 6 -17 19 -24 30 -6 11
-16 19 -22 18 -6 -2 -8 3 -6 10 6 14 -61 93 -76 89 -6 -1 -8 2 -4 8 3 5 -33
50 -81 100 -65 67 -90 87 -97 78 -6 -9 -7 -8 -3 5 4 11 -6 28 -31 50 -44 40
-102 92 -128 116 -59 55 -276 216 -345 256 -10 6 -25 17 -34 24 -9 7 -16 10
-16 7 0 -4 -10 2 -22 14 -20 18 -39 25 -61 21 -5 -1 -6 3 -3 8 7 10 -98 71
-126 74 -9 0 -16 4 -15 7 1 3 0 5 -3 5 -3 0 -20 10 -37 23 -18 13 -33 20 -33
16 0 -4 -8 0 -19 10 -10 9 -28 19 -41 21 -12 2 -27 8 -34 13 -26 19 -138 62
-148 56 -6 -4 -8 -2 -5 3 4 6 -5 14 -21 19 -15 4 -29 8 -32 9 -3 1 -22 9 -44
18 -21 9 -47 17 -57 17 -11 0 -19 4 -19 10 0 5 -3 9 -7 8 -5 -1 -32 6 -62 15
-29 9 -57 14 -61 12 -5 -3 -10 -1 -12 5 -2 6 -17 11 -33 13 -17 1 -32 5 -35 9
-3 4 -21 9 -40 10 -19 2 -37 6 -40 10 -3 3 -18 9 -35 12 -16 3 -50 10 -75 15
-32 7 -49 6 -59 -2 -12 -9 -13 -9 -7 1 9 14 -2 19 -64 26 -25 4 -58 8 -75 11
-16 3 -48 7 -70 10 -22 2 -51 6 -65 9 -14 2 -81 7 -149 11 -69 3 -128 8 -132
10 -3 3 -9 1 -13 -2z m57 -38 c-3 -9 -8 -14 -10 -11 -3 3 -2 9 2 15 9 16 15
13 8 -4z m187 -19 c0 -2 -7 -7 -16 -10 -8 -3 -12 -2 -9 4 6 10 25 14 25 6z
m180 -6 c0 -5 -5 -10 -11 -10 -5 0 -7 5 -4 10 3 6 8 10 11 10 2 0 4 -4 4 -10z
m-1000 -45 c0 -5 -5 -3 -10 5 -5 8 -10 20 -10 25 0 6 5 3 10 -5 5 -8 10 -19
10 -25z m1753 -170 c-3 -9 -8 -14 -10 -11 -3 3 -2 9 2 15 9 16 15 13 8 -4z
m-2538 -25 c3 -5 1 -10 -4 -10 -6 0 -11 5 -11 10 0 6 2 10 4 10 3 0 8 -4 11
-10z m-100 -39 c3 -5 2 -12 -3 -15 -5 -3 -9 1 -9 9 0 17 3 19 12 6z m-65 -35
c0 -2 -8 -10 -17 -17 -16 -13 -17 -12 -4 4 13 16 21 21 21 13z m1338 -60 c-6
-12 -65 -113 -131 -226 -66 -113 -127 -218 -137 -235 -9 -16 -46 -79 -82 -140
-71 -119 -400 -681 -428 -730 -23 -41 -551 -944 -657 -1125 -47 -80 -111 -188
-141 -240 -30 -52 -67 -115 -82 -140 -68 -112 -150 -258 -150 -266 0 -5 39
-31 87 -59 47 -27 98 -57 112 -65 14 -8 43 -26 65 -39 31 -20 40 -21 47 -10 5
8 48 82 96 164 247 427 332 574 355 615 14 25 89 155 168 290 78 135 154 265
168 290 14 25 123 214 242 420 249 431 370 641 506 878 53 92 103 178 111 190
l15 24 32 -54 c18 -29 97 -162 176 -294 l143 -242 106 70 c165 109 186 124
184 134 -1 5 -57 104 -124 219 -321 553 -329 569 -319 579 5 5 10 6 10 2 0 -5
8 -2 17 5 11 10 14 10 9 2 -5 -10 3 -13 31 -14 53 -2 105 -8 111 -14 3 -3 12
1 20 8 13 9 14 9 8 0 -5 -9 0 -13 16 -14 36 -2 67 -7 163 -28 49 -10 93 -17
97 -15 5 3 8 1 8 -4 0 -9 117 -39 133 -34 4 1 7 -2 7 -6 0 -5 24 -14 53 -21
28 -7 67 -19 85 -27 18 -8 37 -12 42 -9 6 3 10 2 10 -3 0 -4 26 -19 58 -31 31
-13 90 -38 130 -57 41 -19 78 -31 84 -28 7 5 8 2 3 -6 -6 -10 -4 -12 9 -7 9 4
15 3 12 -1 -2 -4 30 -25 72 -47 42 -21 83 -45 90 -52 8 -7 18 -11 23 -8 5 4 9
2 9 -3 0 -8 73 -53 84 -53 3 0 18 -11 32 -24 15 -14 29 -24 31 -21 2 2 16 -7
31 -20 71 -62 164 -124 174 -118 6 4 8 3 5 -3 -3 -5 28 -41 70 -79 42 -38 108
-100 147 -139 38 -38 74 -69 79 -67 5 1 6 -2 2 -8 -3 -5 10 -25 30 -44 19 -19
35 -37 35 -40 0 -3 -35 19 -77 48 -203 139 -413 220 -622 242 -30 3 -58 7 -62
10 -12 7 -288 6 -334 -1 -36 -5 -100 -16 -180 -29 -61 -11 -223 -68 -310 -111
-130 -63 -268 -173 -488 -389 -44 -43 -80 -76 -82 -74 -2 2 -77 76 -167 165
-152 150 -174 167 -205 164 -13 -1 -163 -261 -163 -283 0 -7 42 -56 93 -108
181 -185 244 -269 296 -394 34 -82 121 -411 121 -458 0 -33 33 -70 54 -62 18
7 24 25 25 83 1 23 13 91 27 149 90 368 248 630 470 779 130 89 335 177 459
198 246 42 509 14 709 -77 233 -106 462 -332 587 -579 80 -160 114 -313 112
-514 -2 -251 -70 -397 -356 -768 -59 -76 -107 -143 -107 -149 0 -6 20 -45 44
-87 24 -42 56 -96 70 -121 15 -25 34 -60 43 -78 10 -19 28 -35 42 -39 29 -7
36 0 195 217 146 199 211 299 286 442 93 178 125 289 135 471 2 34 4 70 4 80
2 37 16 14 19 -31 1 -26 6 -48 11 -50 5 -2 7 -12 4 -22 -3 -11 -1 -20 3 -20 5
0 10 -15 11 -33 2 -41 11 -132 18 -177 3 -19 8 -69 10 -110 2 -41 5 -77 5 -80
1 -3 1 -52 0 -109 0 -70 3 -108 12 -119 10 -12 10 -14 1 -8 -10 5 -13 -3 -14
-31 0 -21 -3 -49 -5 -63 -3 -14 -6 -53 -7 -87 -1 -35 -5 -63 -9 -63 -3 0 -5
-8 -4 -17 2 -10 -1 -33 -5 -53 -4 -19 -11 -50 -14 -69 -3 -19 -9 -39 -12 -44
-3 -6 -2 -7 4 -4 6 4 2 -19 -8 -50 -15 -45 -17 -59 -6 -71 8 -10 8 -13 0 -9
-7 4 -15 -5 -22 -23 -8 -24 -7 -29 2 -23 9 5 9 3 0 -9 -7 -8 -10 -18 -6 -21 3
-4 1 -7 -4 -7 -6 0 -15 -19 -19 -42 -9 -48 -9 -47 -16 -68 -36 -98 -46 -129
-41 -134 4 -3 0 -6 -7 -6 -7 0 -10 -3 -7 -6 4 -4 0 -19 -7 -33 -28 -52 -56
-133 -49 -144 3 -5 2 -7 -4 -4 -6 4 -25 -27 -43 -69 l-34 -75 -16 28 c-10 15
-403 705 -875 1533 -472 828 -860 1507 -862 1509 -6 8 -303 -178 -303 -190 0
-7 298 -525 828 -1439 283 -488 315 -545 298 -531 -21 18 -61 16 -152 -8 -45
-12 -92 -24 -105 -26 -13 -3 -49 -10 -79 -16 -181 -37 -361 -8 -665 106 -117
45 -151 47 -177 15 -32 -40 -18 -77 45 -117 95 -60 290 -287 386 -451 22 -37
54 -101 70 -144 33 -83 63 -206 52 -213 -4 -2 -740 -4 -1634 -4 l-1627 -1 16
33 c15 28 44 81 124 222 84 148 170 303 170 307 0 5 -294 178 -302 178 -4 0
-100 -162 -173 -291 -131 -233 -269 -469 -275 -469 -5 0 -14 16 -20 35 -6 19
-15 33 -19 31 -4 -3 -7 3 -8 12 -1 21 -45 125 -56 133 -5 3 -9 10 -8 15 1 19
-12 54 -19 54 -4 0 -7 6 -6 13 2 18 -57 191 -66 195 -5 2 -6 8 -3 13 8 12 -16
90 -34 113 -11 13 -12 17 -2 11 10 -5 12 -3 8 11 -5 17 -23 98 -31 135 -2 8
-7 33 -11 57 -4 23 -12 45 -17 48 -5 3 -4 12 3 20 6 8 8 14 3 14 -5 0 -10 33
-12 72 -2 40 -9 79 -15 87 -7 8 -7 12 -1 8 7 -4 8 9 4 42 -3 26 -6 98 -6 158
1 64 -3 109 -8 106 -5 -4 -5 0 0 8 4 7 9 38 10 67 1 29 5 56 8 59 3 4 1 12 -5
20 -6 7 -8 13 -3 13 9 0 17 58 18 133 1 20 6 37 11 37 6 0 3 5 -5 10 -10 6
-11 10 -2 10 6 0 12 5 12 11 0 5 -6 7 -12 3 -8 -5 -7 0 2 11 8 10 16 32 17 49
1 17 6 45 11 61 5 17 9 44 8 62 -1 17 2 29 5 27 5 -3 31 93 30 111 0 2 6 20
15 40 8 19 15 38 15 42 2 10 4 17 20 68 7 22 13 42 14 45 2 14 58 160 61 157
2 -1 -1 -21 -7 -42 -43 -180 -48 -485 -11 -650 43 -186 120 -370 220 -525 31
-47 58 -87 61 -90 3 -3 18 -22 33 -42 86 -114 265 -270 388 -335 104 -56 418
-174 528 -198 18 -3 34 -10 36 -13 2 -4 -27 -104 -64 -221 -52 -161 -66 -219
-59 -233 8 -16 24 -18 117 -19 203 -2 244 -1 252 8 5 4 20 53 35 108 61 227
114 346 197 441 62 73 183 187 288 274 94 77 102 87 89 111 -13 25 -28 24 -86
-5 -45 -23 -166 -58 -242 -71 -19 -3 -37 -7 -40 -9 -3 -2 -31 -7 -61 -10 -30
-3 -66 -8 -80 -11 -46 -10 -285 -7 -348 5 -205 37 -418 151 -588 316 -150 145
-260 339 -321 564 -32 121 -40 331 -16 455 58 307 224 589 448 760 104 80 301
176 390 190 86 14 131 18 205 19 90 0 268 -11 309 -19 20 -4 174 -26 191 -27
41 -3 51 7 127 129 93 151 95 156 80 177 -12 16 -17 18 -97 31 -25 4 -52 9
-60 10 -8 1 -55 6 -105 10 -49 4 -94 9 -98 12 -5 3 -120 7 -255 9 -256 4 -361
-5 -489 -42 -124 -35 -312 -137 -431 -233 -69 -57 -83 -64 -47 -25 14 15 22
31 18 37 -3 5 -1 7 4 4 14 -9 34 16 30 34 -2 8 -2 11 0 7 8 -14 23 -8 23 8 0
8 3 13 8 11 4 -3 18 10 32 29 14 18 29 34 33 34 12 0 37 27 31 33 -3 3 4 8 16
12 13 4 19 12 16 21 -3 8 -2 13 3 10 5 -3 31 14 57 37 27 24 60 52 73 63 13
10 32 27 42 36 10 9 29 24 43 33 14 10 23 22 19 28 -3 5 -1 7 5 3 9 -5 102 55
160 104 6 6 12 7 12 3 0 -4 7 1 16 12 8 11 18 20 22 20 4 0 6 4 4 8 -1 5 2 6
8 2 5 -3 34 9 63 28 55 35 324 169 365 182 12 3 20 11 17 16 -3 5 0 6 8 3 8
-3 32 3 53 12 42 19 49 21 65 23 5 0 8 4 6 9 -3 4 8 7 23 8 15 1 36 5 46 9 11
5 23 9 27 9 4 1 12 8 17 16 5 8 10 10 10 3 0 -6 9 -9 20 -6 11 3 18 9 15 13
-3 5 3 6 14 3 10 -3 22 0 25 5 3 6 16 8 28 4 14 -3 19 -1 14 6 -5 8 -2 10 8 6
10 -4 16 -1 16 7 0 11 3 11 10 -1 5 -8 10 -10 10 -4 0 7 6 12 13 11 35 -1 58
4 53 12 -4 5 2 7 12 5 9 -3 38 0 62 6 25 6 55 11 68 11 12 0 22 3 22 7 0 4 12
7 28 7 15 1 57 4 93 8 36 5 92 10 124 13 32 2 60 6 62 7 2 2 10 4 17 4 12 0
13 -5 4 -21z m632 14 c0 -5 -5 -10 -11 -10 -5 0 -7 5 -4 10 3 6 8 10 11 10 2
0 4 -4 4 -10z m-1145 -9 c3 -5 2 -12 -3 -15 -5 -3 -9 1 -9 9 0 17 3 19 12 6z
m43 -16 c-3 -3 -9 2 -12 12 -6 14 -5 15 5 6 7 -7 10 -15 7 -18z m1422 -55 c0
-5 -2 -10 -4 -10 -3 0 -8 5 -11 10 -3 6 -1 10 4 10 6 0 11 -4 11 -10z m-2545
-60 c3 -5 1 -10 -4 -10 -6 0 -11 5 -11 10 0 6 2 10 4 10 3 0 8 -4 11 -10z
m645 -40 c0 -5 -2 -10 -4 -10 -3 0 -8 5 -11 10 -3 6 -1 10 4 10 6 0 11 -4 11
-10z m2315 -9 c3 -5 2 -12 -3 -15 -5 -3 -9 1 -9 9 0 17 3 19 12 6z m-2420 -19
c-3 -3 -11 0 -18 7 -9 10 -8 11 6 5 10 -3 15 -9 12 -12z m50 8 c3 -6 -1 -7 -9
-4 -18 7 -21 14 -7 14 6 0 13 -4 16 -10z m-90 -40 c3 -5 1 -10 -4 -10 -6 0
-11 5 -11 10 0 6 2 10 4 10 3 0 8 -4 11 -10z m-721 -46 c3 -8 2 -12 -4 -9 -6
3 -10 10 -10 16 0 14 7 11 14 -7z m3341 -14 c3 -5 1 -10 -4 -10 -6 0 -11 5
-11 10 0 6 2 10 4 10 3 0 8 -4 11 -10z m659 -29 c-2 -3 -12 3 -22 13 -16 17
-16 18 5 5 12 -7 20 -15 17 -18z m-4097 -6 c0 -8 -4 -12 -9 -9 -5 3 -6 10 -3
15 9 13 12 11 12 -6z m563 -5 c0 -5 -2 -10 -4 -10 -3 0 -8 5 -11 10 -3 6 -1
10 4 10 6 0 11 -4 11 -10z m-706 -86 c3 -8 2 -12 -4 -9 -6 3 -10 10 -10 16 0
14 7 11 14 -7z m4386 2 c0 -2 -8 -10 -17 -17 -16 -13 -17 -12 -4 4 13 16 21
21 21 13z m-495 -56 c3 -6 -1 -7 -9 -4 -18 7 -21 14 -7 14 6 0 13 -4 16 -10z
m50 -20 c3 -5 1 -10 -4 -10 -6 0 -11 5 -11 10 0 6 2 10 4 10 3 0 8 -4 11 -10z
m-3520 -19 c3 -5 2 -12 -3 -15 -5 -3 -9 1 -9 9 0 17 3 19 12 6z m-524 -34
c-10 -9 -11 -8 -5 6 3 10 9 15 12 12 3 -3 0 -11 -7 -18z m-36 -47 c3 -5 1 -10
-4 -10 -6 0 -11 5 -11 10 0 6 2 10 4 10 3 0 8 -4 11 -10z m4700 0 c3 -5 1 -10
-4 -10 -6 0 -11 5 -11 10 0 6 2 10 4 10 3 0 8 -4 11 -10z m-4760 -20 c3 -5 1
-10 -4 -10 -6 0 -11 5 -11 10 0 6 2 10 4 10 3 0 8 -4 11 -10z m515 -20 c-8 -5
-19 -10 -25 -10 -5 0 -3 5 5 10 8 5 20 10 25 10 6 0 3 -5 -5 -10z m-175 -140
c3 -5 1 -10 -4 -10 -6 0 -11 5 -11 10 0 6 2 10 4 10 3 0 8 -4 11 -10z m4105 4
c0 -8 -19 -13 -24 -6 -3 5 1 9 9 9 8 0 15 -2 15 -3z m460 -4 c0 -5 -5 -10 -11
-10 -5 0 -7 5 -4 10 3 6 8 10 11 10 2 0 4 -4 4 -10z m80 -34 c0 -3 -4 -8 -10
-11 -5 -3 -10 -1 -10 4 0 6 5 11 10 11 6 0 10 -2 10 -4z m-4703 -41 c0 -8 -4
-12 -9 -9 -5 3 -6 10 -3 15 9 13 12 11 12 -6z m-477 -19 c0 -3 -4 -8 -10 -11
-5 -3 -10 -1 -10 4 0 6 5 11 10 11 6 0 10 -2 10 -4z m-25 -66 c3 -5 1 -10 -4
-10 -6 0 -11 5 -11 10 0 6 2 10 4 10 3 0 8 -4 11 -10z m390 -20 c-3 -5 -12
-10 -18 -10 -7 0 -6 4 3 10 19 12 23 12 15 0z m4529 -66 c3 -8 2 -12 -4 -9 -6
3 -10 10 -10 16 0 14 7 11 14 -7z m-4999 -13 c3 -5 2 -12 -3 -15 -5 -3 -9 1
-9 9 0 17 3 19 12 6z m425 5 c0 -3 -4 -8 -10 -11 -5 -3 -10 -1 -10 4 0 6 5 11
10 11 6 0 10 -2 10 -4z m-480 -80 c0 -3 -4 -8 -10 -11 -5 -3 -10 -1 -10 4 0 6
5 11 10 11 6 0 10 -2 10 -4z m-49 -99 c-10 -9 -11 -8 -5 6 3 10 9 15 12 12 3
-3 0 -11 -7 -18z m-57 -53 c3 -8 2 -12 -4 -9 -6 3 -10 10 -10 16 0 14 7 11 14
-7z m5731 -14 c3 -6 -1 -7 -9 -4 -18 7 -21 14 -7 14 6 0 13 -4 16 -10z m-5805
-156 c0 -8 -19 -13 -24 -6 -3 5 1 9 9 9 8 0 15 -2 15 -3z m-110 -204 c-8 -5
-19 -10 -25 -10 -5 0 -3 5 5 10 8 5 20 10 25 10 6 0 3 -5 -5 -10z m264 -186
c3 -8 2 -12 -4 -9 -6 3 -10 10 -10 16 0 14 7 11 14 -7z m-379 -102 c-3 -3 -11
0 -18 7 -9 10 -8 11 6 5 10 -3 15 -9 12 -12z m-30 -112 c-3 -5 -12 -10 -18
-10 -7 0 -6 4 3 10 19 12 23 12 15 0z m6099 -138 c3 -5 -1 -9 -9 -9 -8 0 -12
4 -9 9 3 4 7 8 9 8 2 0 6 -4 9 -8z m346 2 c0 -8 -19 -13 -24 -6 -3 5 1 9 9 9
8 0 15 -2 15 -3z m-6550 -304 c0 -5 -2 -10 -4 -10 -3 0 -8 5 -11 10 -3 6 -1
10 4 10 6 0 11 -4 11 -10z m6605 -80 c3 -6 -1 -7 -9 -4 -18 7 -21 14 -7 14 6
0 13 -4 16 -10z m-6248 -35 c0 -8 -4 -12 -9 -9 -5 3 -6 10 -3 15 9 13 12 11
12 -6z m5916 -60 c-3 -9 -8 -14 -10 -11 -3 3 -2 9 2 15 9 16 15 13 8 -4z m20
-70 c4 -8 3 -16 -1 -19 -4 -3 -9 4 -9 15 -2 23 3 25 10 4z m327 11 c0 -3 -4
-8 -10 -11 -5 -3 -10 -1 -10 4 0 6 5 11 10 11 6 0 10 -2 10 -4z m13 -61 c-3
-9 -8 -14 -10 -11 -3 3 -2 9 2 15 9 16 15 13 8 -4z m-333 -139 c0 -2 -7 -7
-16 -10 -8 -3 -12 -2 -9 4 6 10 25 14 25 6z m-5986 -32 c3 -8 2 -12 -4 -9 -6
3 -10 10 -10 16 0 14 7 11 14 -7z m5966 -74 c0 -5 -5 -10 -11 -10 -5 0 -7 5
-4 10 3 6 8 10 11 10 2 0 4 -4 4 -10z m20 -134 c0 -3 -4 -8 -10 -11 -5 -3 -10
-1 -10 4 0 6 5 11 10 11 6 0 10 -2 10 -4z m-35 -126 c3 -6 -1 -7 -9 -4 -18 7
-21 14 -7 14 6 0 13 -4 16 -10z m-5945 -60 c0 -5 -5 -10 -11 -10 -5 0 -7 5 -4
10 3 6 8 10 11 10 2 0 4 -4 4 -10z m-327 -35 c-3 -9 -8 -14 -10 -11 -3 3 -2 9
2 15 9 16 15 13 8 -4z m6602 -153 c-3 -3 -11 0 -18 7 -9 10 -8 11 6 5 10 -3
15 -9 12 -12z m-362 -7 c-3 -9 -8 -14 -10 -11 -3 3 -2 9 2 15 9 16 15 13 8 -4z
m-5849 -43 c3 -5 -1 -9 -9 -9 -8 0 -12 4 -9 9 3 4 7 8 9 8 2 0 6 -4 9 -8z
m5816 -2 c0 -5 -2 -10 -4 -10 -3 0 -8 5 -11 10 -3 6 -1 10 4 10 6 0 11 -4 11
-10z m-6140 -94 c0 -3 -4 -8 -10 -11 -5 -3 -10 -1 -10 4 0 6 5 11 10 11 6 0
10 -2 10 -4z m5396 -505 c14 -24 24 -45 22 -46 -2 -2 -140 -5 -308 -6 -168 -2
-311 -5 -317 -7 -10 -3 -13 -48 -13 -181 l0 -176 445 3 c251 1 445 -1 445 -6
0 -5 -11 -22 -25 -38 -14 -16 -23 -35 -20 -42 3 -7 1 -10 -5 -7 -11 7 -32 -29
-22 -40 4 -5 2 -5 -5 -1 -7 4 -19 -6 -29 -24 -10 -16 -23 -30 -28 -30 -5 0 -7
-3 -4 -6 4 -3 -7 -18 -23 -33 -29 -28 -39 -49 -17 -35 7 4 8 3 4 -5 -4 -6 -11
-9 -15 -7 -10 6 -67 -64 -63 -77 1 -5 -3 -5 -9 -1 -17 10 -30 -18 -16 -36 11
-13 10 -13 -5 -1 -17 12 -23 9 -19 -12 1 -5 -2 -6 -7 -3 -12 7 -154 -138 -145
-149 4 -4 2 -5 -5 -1 -6 4 -18 1 -25 -6 -8 -7 -35 -31 -62 -53 -26 -22 -56
-48 -66 -58 -11 -9 -23 -17 -29 -17 -5 0 -10 -4 -10 -10 0 -5 -5 -10 -11 -10
-7 0 -20 -9 -30 -21 -9 -11 -21 -21 -26 -21 -20 -2 -82 -51 -76 -61 3 -6 1 -7
-6 -3 -7 4 -26 -3 -44 -16 -18 -14 -39 -27 -47 -31 -8 -4 -37 -20 -65 -37 -27
-16 -80 -45 -117 -62 -37 -18 -68 -38 -68 -45 0 -7 -6 -10 -14 -7 -7 3 -31 -4
-52 -14 -51 -26 -116 -54 -191 -82 -18 -7 -33 -18 -33 -24 0 -7 -4 -6 -9 2 -7
11 -11 11 -22 -1 -8 -7 -20 -12 -28 -9 -8 3 -11 0 -8 -5 4 -6 -5 -10 -20 -10
-15 0 -29 -6 -31 -12 -2 -6 -8 -9 -12 -6 -5 3 -42 -4 -82 -16 -40 -11 -82 -23
-93 -26 -11 -2 -27 -7 -35 -10 -15 -6 -27 -8 -63 -11 -11 -1 -15 -7 -11 -14 5
-7 3 -8 -7 -2 -8 5 -23 7 -34 6 -11 -2 21 17 70 41 215 104 358 214 506 387
185 216 329 530 365 797 22 156 -2 397 -65 663 -11 47 -17 88 -13 91 4 4 79
23 167 43 275 63 285 68 285 128 0 18 152 -232 296 -491z m-5401 459 c3 -5 1
-10 -4 -10 -6 0 -11 5 -11 10 0 6 2 10 4 10 3 0 8 -4 11 -10z m6430 -200 c3
-6 -1 -7 -9 -4 -18 7 -21 14 -7 14 6 0 13 -4 16 -10z m-6310 -128 c-3 -3 -11
0 -18 7 -9 10 -8 11 6 5 10 -3 15 -9 12 -12z m325 8 c0 -5 -2 -10 -4 -10 -3 0
-8 5 -11 10 -3 6 -1 10 4 10 6 0 11 -4 11 -10z m60 -36 c0 -8 -19 -13 -24 -6
-3 5 1 9 9 9 8 0 15 -2 15 -3z m-369 -77 c-10 -9 -11 -8 -5 6 3 10 9 15 12 12
3 -3 0 -11 -7 -18z m6049 -341 c0 -3 -4 -8 -10 -11 -5 -3 -10 -1 -10 4 0 6 5
11 10 11 6 0 10 -2 10 -4z m-40 -46 c0 -5 -5 -10 -11 -10 -5 0 -7 5 -4 10 3 6
8 10 11 10 2 0 4 -4 4 -10z m-2597 -55 c407 -2 742 -6 745 -10 12 -11 -36
-174 -77 -259 -203 -435 -578 -672 -1061 -670 -119 0 -158 4 -240 20 -180 36
-362 132 -503 264 -105 98 -206 262 -312 507 -30 71 -56 115 -69 122 -17 9
-279 17 -373 12 -35 -2 -63 -39 -58 -75 14 -104 216 -507 339 -676 113 -156
252 -278 440 -387 l41 -23 -32 2 c-17 1 -29 6 -26 12 4 5 -3 7 -15 4 -12 -3
-22 -2 -24 2 -2 4 -14 11 -27 15 -18 5 -22 4 -17 -6 4 -8 1 -6 -7 3 -8 10 -17
15 -20 11 -4 -3 -7 -1 -7 5 0 7 -7 12 -15 12 -9 0 -35 9 -57 20 -23 11 -45 20
-49 20 -4 0 -28 9 -53 20 -26 11 -50 20 -54 21 -4 0 -12 5 -19 11 -7 5 -18 6
-24 2 -7 -4 -9 -3 -6 3 4 6 -13 18 -36 29 -23 10 -54 26 -69 37 -16 10 -28 15
-28 11 0 -3 -6 -1 -13 5 -8 6 -17 8 -20 4 -4 -3 -7 -1 -7 4 0 16 -90 64 -104
56 -6 -3 -8 -2 -3 2 6 7 -144 115 -160 115 -2 0 -10 6 -18 13 -28 27 -55 46
-55 40 0 -3 -8 3 -17 13 -32 35 -75 64 -86 57 -5 -3 -7 -1 -4 5 9 14 -51 64
-66 55 -7 -3 -9 -3 -5 1 4 5 -51 66 -122 136 -71 70 -126 130 -123 134 4 3 0
6 -8 6 -8 0 -19 10 -24 23 -6 12 -16 21 -23 20 -7 -2 -11 1 -9 6 3 13 -71 111
-84 111 -6 0 -7 5 -4 10 3 6 1 10 -4 10 -6 0 -11 4 -11 10 0 16 -67 99 -74 92
-4 -3 -4 1 0 11 7 18 -182 18 2757 2z m-3143 -99 c0 -3 -4 -8 -10 -11 -5 -3
-10 -1 -10 4 0 6 5 11 10 11 6 0 10 -2 10 -4z m40 -26 c0 -5 -5 -10 -11 -10
-5 0 -7 5 -4 10 3 6 8 10 11 10 2 0 4 -4 4 -10z m5615 -20 c3 -5 1 -10 -4 -10
-6 0 -11 5 -11 10 0 6 2 10 4 10 3 0 8 -4 11 -10z m-535 -174 c0 -2 -7 -7 -16
-10 -8 -3 -12 -2 -9 4 6 10 25 14 25 6z m-109 -119 c-10 -9 -11 -8 -5 6 3 10
9 15 12 12 3 -3 0 -11 -7 -18z m-86 -87 c3 -6 -1 -7 -9 -4 -18 7 -21 14 -7 14
6 0 13 -4 16 -10z m400 -40 c-3 -5 -12 -10 -18 -10 -7 0 -6 4 3 10 19 12 23
12 15 0z m-545 -54 c0 -3 -4 -8 -10 -11 -5 -3 -10 -1 -10 4 0 6 5 11 10 11 6
0 10 -2 10 -4z m-4335 -26 c3 -6 -1 -7 -9 -4 -18 7 -21 14 -7 14 6 0 13 -4 16
-10z m4750 -48 c-3 -3 -11 0 -18 7 -9 10 -8 11 6 5 10 -3 15 -9 12 -12z m-541
-58 c3 -8 2 -12 -4 -9 -6 3 -10 10 -10 16 0 14 7 11 14 -7z m-4110 -12 c3 -5
-1 -9 -9 -9 -8 0 -12 4 -9 9 3 4 7 8 9 8 2 0 6 -4 9 -8z m601 -42 c-3 -5 -12
-10 -18 -10 -7 0 -6 4 3 10 19 12 23 12 15 0z m52 -25 c0 -8 -4 -12 -9 -9 -5
3 -6 10 -3 15 9 13 12 11 12 -6z m3257 -21 c3 -8 2 -12 -4 -9 -6 3 -10 10 -10
16 0 14 7 11 14 -7z m566 -8 c0 -3 -4 -8 -10 -11 -5 -3 -10 -1 -10 4 0 6 5 11
10 11 6 0 10 -2 10 -4z m-3667 -61 c-3 -9 -8 -14 -10 -11 -3 3 -2 9 2 15 9 16
15 13 8 -4z m-593 -5 c0 -5 -5 -10 -11 -10 -5 0 -7 5 -4 10 3 6 8 10 11 10 2
0 4 -4 4 -10z m3495 -39 c3 -5 2 -12 -3 -15 -5 -3 -9 1 -9 9 0 17 3 19 12 6z
m596 -34 c-10 -9 -11 -8 -5 6 3 10 9 15 12 12 3 -3 0 -11 -7 -18z m-81 -47
c-8 -5 -19 -10 -25 -10 -5 0 -3 5 5 10 8 5 20 10 25 10 6 0 3 -5 -5 -10z
m-3835 -20 c3 -5 1 -10 -4 -10 -6 0 -11 5 -11 10 0 6 2 10 4 10 3 0 8 -4 11
-10z m3120 0 c3 -5 1 -10 -4 -10 -6 0 -11 5 -11 10 0 6 2 10 4 10 3 0 8 -4 11
-10z m-95 -60 c0 -5 -2 -10 -4 -10 -3 0 -8 5 -11 10 -3 6 -1 10 4 10 6 0 11
-4 11 -10z m-2860 -65 c0 -5 -5 -3 -10 5 -5 8 -10 20 -10 25 0 6 5 3 10 -5 5
-8 10 -19 10 -25z m3500 25 c0 -5 -5 -10 -11 -10 -5 0 -7 5 -4 10 3 6 8 10 11
10 2 0 4 -4 4 -10z m-2680 -34 c0 -3 -4 -8 -10 -11 -5 -3 -10 -1 -10 4 0 6 5
11 10 11 6 0 10 -2 10 -4z m2454 -112 c3 -8 2 -12 -4 -9 -6 3 -10 10 -10 16 0
14 7 11 14 -7z m-2929 -54 c3 -6 -1 -7 -9 -4 -18 7 -21 14 -7 14 6 0 13 -4 16
-10z m95 -65 c0 -5 -5 -3 -10 5 -5 8 -10 20 -10 25 0 6 5 3 10 -5 5 -8 10 -19
10 -25z m2430 -31 c0 -8 -19 -13 -24 -6 -3 5 1 9 9 9 8 0 15 -2 15 -3z m-2119
-77 c-10 -9 -11 -8 -5 6 3 10 9 15 12 12 3 -3 0 -11 -7 -18z m69 9 c-7 -7 -13
-7 -20 0 -6 6 -3 10 10 10 13 0 16 -4 10 -10z m213 -51 c-3 -9 -8 -14 -10 -11
-3 3 -2 9 2 15 9 16 15 13 8 -4z m1543 -7 c3 -4 -1 -5 -10 -4 -8 1 -18 5 -22
8 -3 4 1 5 10 4 8 -1 18 -5 22 -8z m-216 -18 c0 -5 -5 -10 -11 -10 -5 0 -7 5
-4 10 3 6 8 10 11 10 2 0 4 -4 4 -10z m60 4 c0 -8 -19 -13 -24 -6 -3 5 1 9 9
9 8 0 15 -2 15 -3z m-1149 -37 c-10 -9 -11 -8 -5 6 3 10 9 15 12 12 3 -3 0
-11 -7 -18z m154 -7 c3 -6 -1 -7 -9 -4 -18 7 -21 14 -7 14 6 0 13 -4 16 -10z
m534 -24 c-3 -3 -11 5 -18 17 -13 21 -12 21 5 5 10 -10 16 -20 13 -22z m217 8
c1 -9 0 -13 -4 -10 -3 4 -7 14 -8 22 -1 9 0 13 4 10 3 -4 7 -14 8 -22z m44 16
c0 -5 -2 -10 -4 -10 -3 0 -8 5 -11 10 -3 6 -1 10 4 10 6 0 11 -4 11 -10z
m-540 -34 c0 -3 -4 -8 -10 -11 -5 -3 -10 -1 -10 4 0 6 5 11 10 11 6 0 10 -2
10 -4z m114 -12 c3 -8 2 -12 -4 -9 -6 3 -10 10 -10 16 0 14 7 11 14 -7z"/>
</g>
</svg>
