<?xml version="1.0" standalone="no"?>
<!DOCTYPE svg PUBLIC "-//W3C//DTD SVG 20010904//EN"
 "http://www.w3.org/TR/2001/REC-SVG-20010904/DTD/svg10.dtd">
<svg version="1.0" xmlns="http://www.w3.org/2000/svg"
 width="700.000000pt" height="700.000000pt" viewBox="0 0 700.000000 700.000000"
 preserveAspectRatio="xMidYMid meet">
<metadata>
Created by potrace 1.11, written by Peter Selinger 2001-2013
</metadata>
<g transform="translate(0.000000,700.000000) scale(0.100000,-0.100000)"
fill="#000000" stroke="none">
<path d="M3564 6815 c5 -14 3 -15 -6 -8 -19 16 -201 16 -191 0 5 -9 3 -9 -8
-2 -8 6 -21 10 -29 9 -8 -1 -37 -2 -63 -3 -36 -1 -46 -4 -41 -13 6 -10 4 -10
-8 0 -13 10 -17 10 -21 0 -3 -7 -6 -8 -6 -2 -1 6 -14 9 -31 6 -16 -2 -28 -7
-26 -11 2 -3 -21 -6 -52 -7 -73 -1 -135 -13 -144 -28 -6 -8 -8 -8 -8 1 0 8 -9
9 -30 3 -17 -5 -33 -9 -35 -9 -12 -2 -21 -3 -30 -6 -5 -1 -18 -3 -28 -3 -10
-1 -16 -5 -14 -9 3 -5 -11 -9 -31 -10 -21 0 -46 -3 -57 -6 -11 -3 -24 -6 -28
-6 -5 -1 -5 -6 -1 -13 4 -7 3 -8 -4 -4 -17 10 -83 -4 -75 -17 3 -5 2 -7 -4 -4
-19 12 -305 -83 -311 -103 -2 -6 -8 -8 -13 -5 -14 9 -50 -15 -42 -28 5 -8 2
-8 -9 1 -13 10 -19 10 -32 -3 -8 -9 -17 -14 -18 -13 -8 8 -158 -67 -155 -76 3
-6 -8 -11 -26 -12 -17 -1 -35 -8 -41 -15 -6 -8 -16 -15 -21 -16 -28 -5 -154
-86 -148 -95 4 -7 1 -8 -6 -4 -10 7 -79 -31 -101 -54 -3 -3 -29 -21 -57 -39
-29 -18 -53 -37 -53 -42 0 -5 -3 -8 -7 -7 -13 4 -173 -124 -167 -133 3 -5 -3
-6 -13 -2 -10 3 -15 3 -11 -1 4 -5 -12 -23 -35 -41 -23 -18 -41 -37 -40 -43 2
-6 -4 -9 -12 -6 -10 4 -15 0 -15 -12 0 -9 -3 -15 -6 -11 -4 3 -28 -15 -55 -40
-37 -35 -46 -49 -37 -56 9 -6 8 -7 -4 -4 -18 6 -52 -25 -41 -37 5 -4 1 -6 -7
-4 -9 2 -14 -4 -14 -14 1 -10 -2 -16 -6 -13 -11 7 -61 -50 -53 -60 5 -4 3 -5
-3 -2 -6 3 -17 -2 -25 -11 -8 -10 -26 -32 -42 -50 -15 -19 -25 -38 -22 -43 4
-5 -1 -6 -9 -3 -9 3 -17 -2 -21 -15 -3 -12 -11 -21 -16 -21 -5 0 -9 -5 -9 -11
0 -5 6 -7 12 -3 8 4 10 3 5 -2 -5 -5 -14 -9 -20 -9 -7 0 -11 -9 -10 -18 0 -10
-2 -16 -5 -13 -7 7 -42 -23 -42 -36 0 -5 -6 -15 -13 -23 -22 -23 -46 -60 -44
-67 1 -4 -7 -14 -18 -22 -11 -9 -17 -16 -13 -16 4 0 -3 -11 -15 -24 -30 -32
-68 -106 -61 -117 3 -5 2 -8 -3 -7 -4 2 -8 -1 -8 -5 0 -5 -8 -13 -18 -18 -9
-6 -15 -14 -12 -20 4 -5 2 -9 -3 -9 -5 0 -12 -8 -16 -17 -3 -10 -19 -40 -35
-68 -15 -27 -27 -53 -24 -57 2 -5 0 -8 -5 -8 -5 0 -14 -12 -20 -26 -10 -20
-10 -24 0 -18 7 4 3 -3 -9 -15 -13 -12 -24 -28 -24 -36 -2 -25 -4 -29 -23 -57
-10 -16 -16 -35 -12 -43 4 -11 2 -14 -6 -9 -7 5 -9 0 -6 -14 3 -12 1 -20 -4
-19 -6 1 -16 -16 -24 -38 -8 -22 -18 -49 -24 -60 -23 -49 -70 -200 -66 -211 3
-7 1 -14 -4 -16 -5 -2 -10 -16 -12 -33 -2 -16 -6 -32 -10 -35 -3 -3 -10 -18
-13 -33 -6 -23 -5 -26 11 -22 11 3 9 0 -4 -7 -18 -9 -23 -18 -20 -39 3 -16 1
-26 -3 -24 -6 4 -25 -75 -36 -150 -2 -16 -8 -52 -13 -80 -19 -106 -21 -127 -8
-119 9 5 8 2 -1 -9 -14 -18 -20 -74 -26 -256 -2 -57 -6 -106 -9 -108 -3 -3 -1
-14 5 -24 7 -13 6 -19 -1 -19 -6 0 -8 -5 -5 -10 3 -6 7 -49 7 -97 0 -69 4 -90
17 -100 14 -12 14 -12 -3 -7 -15 6 -17 3 -12 -12 3 -10 7 -45 8 -76 2 -32 6
-58 9 -58 3 0 4 -11 1 -25 -4 -21 -1 -24 14 -19 16 5 17 4 3 -5 -14 -9 -15
-19 -7 -68 6 -32 11 -65 13 -73 2 -8 4 -23 4 -33 1 -11 6 -15 12 -11 8 4 8 0
0 -15 -7 -11 -8 -21 -4 -21 4 0 9 -14 10 -31 1 -17 8 -37 14 -45 7 -9 8 -14 1
-14 -7 0 -7 -10 -2 -27 5 -16 13 -44 19 -64 6 -19 11 -43 11 -52 0 -9 3 -17 8
-17 4 0 8 -14 8 -31 1 -17 6 -34 10 -38 5 -3 10 -13 11 -21 14 -119 269 -701
303 -692 6 1 9 -2 6 -7 -4 -5 2 -25 12 -43 34 -59 145 -223 154 -226 4 -2 8
-8 8 -13 0 -14 72 -104 81 -102 5 2 8 -1 6 -6 -4 -15 67 -102 80 -97 6 3 10 0
7 -7 -6 -16 55 -89 67 -81 5 3 8 2 7 -3 -4 -13 26 -53 40 -53 7 0 10 -4 7 -10
-6 -9 7 -14 27 -11 4 0 5 -5 3 -12 -6 -14 188 -198 292 -277 21 -16 45 -35 53
-42 8 -7 15 -11 15 -8 0 3 15 -10 34 -28 19 -17 40 -32 46 -32 7 0 16 -7 19
-16 4 -10 12 -14 23 -10 10 4 14 4 10 0 -9 -9 31 -43 59 -50 12 -3 25 -13 28
-21 4 -8 13 -13 21 -9 8 3 14 2 12 -2 -1 -4 2 -8 7 -9 5 0 13 -8 18 -17 5 -9
14 -16 20 -16 6 0 19 -6 27 -14 9 -8 23 -16 31 -18 8 -2 23 -11 34 -21 11 -9
35 -22 53 -29 18 -7 33 -16 33 -20 0 -4 7 -8 15 -8 9 0 27 -7 40 -16 13 -9 29
-13 35 -9 6 4 9 1 8 -7 -2 -7 4 -13 12 -13 8 0 17 -3 20 -6 5 -5 76 -39 150
-71 24 -11 52 -17 62 -15 10 3 15 1 12 -4 -3 -5 3 -12 13 -15 10 -3 28 -10 39
-16 12 -5 33 -11 47 -11 14 -1 23 -4 21 -7 -8 -7 108 -40 119 -33 6 3 7 1 3
-5 -6 -10 18 -16 50 -11 4 0 10 -4 13 -9 3 -6 20 -12 36 -15 17 -3 41 -9 55
-14 14 -5 34 -9 45 -9 11 1 23 -3 26 -7 3 -5 29 -9 56 -10 28 -1 48 -6 45 -11
-3 -5 5 -7 16 -4 12 4 22 2 22 -4 0 -5 6 -8 13 -5 6 2 22 0 35 -4 13 -5 21 -5
18 -1 -3 5 1 9 9 9 8 0 12 -4 10 -8 -3 -3 4 -9 15 -12 13 -3 18 -1 13 5 -4 7
-1 8 8 2 8 -4 23 -9 34 -10 11 -2 31 -5 45 -8 14 -2 65 -8 115 -11 49 -4 92
-8 94 -11 2 -2 11 2 19 9 10 7 13 8 9 1 -5 -8 5 -11 31 -10 31 1 37 5 34 21
-2 16 -1 17 7 5 5 -8 7 -18 4 -23 -5 -8 283 -8 300 1 4 2 47 5 95 8 48 2 98 6
112 10 14 3 48 8 75 11 28 3 56 10 64 16 12 10 13 9 6 -2 -6 -11 -4 -13 11 -6
10 5 38 10 61 13 27 2 40 8 36 15 -3 6 -1 7 5 3 14 -8 84 3 78 13 -3 4 8 6 22
5 15 -1 31 1 37 4 5 3 16 7 25 8 46 4 248 69 243 77 -3 6 -1 7 5 3 17 -10 64
12 56 26 -5 10 -4 10 6 1 9 -9 23 -7 57 8 25 10 51 19 59 19 9 0 12 5 8 12 -4
6 -3 8 4 5 14 -9 43 3 36 14 -3 5 1 7 8 4 17 -6 140 49 131 59 -4 4 0 4 9 1 8
-3 23 1 32 10 9 9 16 14 16 10 0 -3 9 -1 20 5 11 6 18 15 15 20 -3 6 0 7 8 4
8 -3 38 9 66 25 29 17 56 31 62 31 5 0 12 7 15 15 4 8 9 13 13 10 8 -5 112 61
122 77 3 5 8 8 10 6 8 -7 97 57 92 66 -3 5 -2 6 4 3 9 -6 146 89 163 111 3 4
18 15 33 25 15 10 25 22 22 28 -4 5 -3 8 2 7 16 -5 54 23 47 35 -4 7 -4 9 1 5
4 -4 14 -3 22 3 11 10 11 15 1 28 -11 14 -11 14 3 3 14 -11 22 -7 55 24 22 20
38 41 36 46 -1 5 1 7 6 4 9 -5 156 142 240 242 31 37 60 68 64 70 5 2 8 8 8
13 0 5 8 17 18 27 31 34 88 113 84 119 0 1 12 16 29 34 16 17 29 37 29 45 0 8
5 14 10 14 6 0 10 5 10 10 0 6 8 20 19 31 10 11 27 37 37 59 10 22 23 40 28
40 4 0 5 7 2 16 -3 8 -2 13 3 10 11 -7 23 22 14 36 -3 6 -2 8 4 5 5 -3 19 11
31 32 17 30 19 40 9 50 -9 10 -8 11 6 6 11 -5 17 -2 17 8 0 8 4 17 9 19 14 5
82 158 75 170 -4 6 -3 8 4 5 15 -10 62 114 49 131 -7 9 -5 11 9 5 17 -6 18 -5
4 12 -8 10 -10 16 -3 12 13 -8 42 45 47 86 1 14 8 33 16 41 7 9 9 16 6 16 -4
0 -2 8 3 18 7 13 6 23 -2 32 -9 10 -9 11 1 6 14 -8 36 39 28 61 -3 7 -2 13 3
13 14 0 21 43 9 58 -9 10 -8 12 3 10 8 -2 14 4 14 12 0 8 3 20 6 25 11 18 31
106 33 145 0 14 4 27 7 30 4 3 10 28 13 55 4 28 9 57 11 65 3 14 8 52 20 158
3 26 8 57 10 69 4 18 2 21 -12 16 -16 -5 -16 -4 1 9 17 14 19 31 19 239 0 123
-3 267 -8 319 -4 52 -7 103 -7 112 0 10 -3 20 -8 23 -5 3 -6 13 -3 21 3 9 0
20 -8 25 -8 5 -9 9 -2 9 12 0 7 37 -9 57 -5 7 -5 14 2 18 6 3 7 12 3 18 -4 6
-8 18 -8 27 -4 48 -17 110 -23 110 -4 0 -8 15 -8 33 -1 17 -7 52 -13 77 -7 25
-13 52 -15 60 -2 8 -6 22 -9 30 -10 27 -28 87 -32 109 -2 11 -7 26 -10 31 -3
5 -8 18 -10 27 -10 40 -65 190 -103 276 -9 20 -20 37 -25 37 -4 0 -6 4 -3 9 6
9 -124 272 -148 301 -7 8 -16 24 -20 35 -6 16 -9 17 -17 5 -9 -12 -10 -11 -5
4 5 14 -13 49 -60 120 -37 56 -71 103 -76 104 -4 2 -8 10 -8 17 0 8 -9 20 -20
28 -11 8 -18 16 -15 18 2 3 -14 25 -37 49 -22 25 -41 47 -42 50 0 3 -5 4 -9 2
-5 -1 -6 1 -3 6 5 9 -35 59 -138 169 -44 47 -62 60 -69 51 -6 -9 -7 -7 -3 6 8
23 -24 51 -37 33 -5 -8 -7 -7 -6 3 2 24 -1 44 -6 38 -3 -3 -32 22 -66 54 -53
52 -62 58 -77 46 -15 -11 -15 -11 -5 3 14 17 1 32 -82 93 -22 17 -43 35 -47
40 -5 7 -8 7 -8 1 0 -5 -7 1 -16 14 -13 18 -18 20 -25 10 -7 -11 -9 -10 -9 3
0 18 -120 108 -145 108 -9 0 -14 4 -11 9 3 5 0 12 -7 15 -6 3 -30 17 -52 31
-22 14 -51 30 -65 37 -14 7 -27 15 -30 18 -3 3 -18 12 -35 22 -210 115 -495
241 -521 231 -12 -4 -15 -3 -10 5 4 7 1 13 -8 13 -24 2 -51 11 -93 31 -12 6
-36 11 -52 12 -17 1 -31 4 -31 9 0 4 -6 7 -13 7 -8 0 -39 8 -70 18 -41 14 -59
16 -68 8 -9 -8 -10 -8 -6 0 7 12 -85 36 -142 38 -16 1 -27 4 -24 9 2 4 -1 7
-6 7 -6 0 -11 -6 -11 -12 0 -10 -2 -10 -9 0 -4 8 -27 15 -50 15 -22 1 -41 5
-41 8 0 3 -6 6 -12 6 -12 0 -96 9 -163 18 -16 2 -91 7 -165 11 -74 3 -139 9
-144 12 -5 3 -6 -3 -2 -13z m86 -29 c0 -3 -4 -8 -10 -11 -5 -3 -10 -1 -10 4 0
6 5 11 10 11 6 0 10 -2 10 -4z m-443 -31 c0 -8 -4 -12 -9 -9 -5 3 -6 10 -3 15
9 13 12 11 12 -6z m623 11 c0 -2 -7 -7 -16 -10 -8 -3 -12 -2 -9 4 6 10 25 14
25 6z m224 -44 c3 -5 -1 -9 -9 -9 -8 0 -12 4 -9 9 3 4 7 8 9 8 2 0 6 -4 9 -8z
m-1314 -36 c0 -2 -8 -10 -17 -17 -16 -13 -17 -12 -4 4 13 16 21 21 21 13z
m1724 -55 c-2 -3 -12 3 -22 13 -16 17 -16 18 5 5 12 -7 20 -15 17 -18z m-1919
1 c-3 -3 -11 0 -18 7 -9 10 -8 11 6 5 10 -3 15 -9 12 -12z m85 14 c0 -3 -4 -8
-10 -11 -5 -3 -10 -1 -10 4 0 6 5 11 10 11 6 0 10 -2 10 -4z m40 -6 c0 -5 -2
-10 -4 -10 -3 0 -8 5 -11 10 -3 6 -1 10 4 10 6 0 11 -4 11 -10z m-205 -19 c3
-5 2 -12 -3 -15 -5 -3 -9 1 -9 9 0 17 3 19 12 6z m-104 -54 c-10 -9 -11 -8 -5
6 3 10 9 15 12 12 3 -3 0 -11 -7 -18z m2489 -41 c0 -3 -4 -8 -10 -11 -5 -3
-10 -1 -10 4 0 6 5 11 10 11 6 0 10 -2 10 -4z m-2723 -61 c0 -8 -4 -12 -9 -9
-5 3 -6 10 -3 15 9 13 12 11 12 -6z m-72 -65 c3 -6 -1 -7 -9 -4 -18 7 -21 14
-7 14 6 0 13 -4 16 -10z m1015 0 c0 -5 -2 -10 -4 -10 -3 0 -8 5 -11 10 -3 6
-1 10 4 10 6 0 11 -4 11 -10z m328 -15 c-11 -20 -169 -290 -330 -565 -47 -80
-203 -347 -348 -595 -398 -681 -733 -1253 -828 -1415 -47 -80 -99 -170 -117
-200 -18 -30 -66 -114 -108 -186 -43 -72 -77 -135 -77 -140 0 -8 184 -122 214
-133 6 -2 13 -7 16 -10 14 -16 73 -42 79 -35 4 5 131 223 281 484 150 261 320
556 378 655 58 99 116 200 130 225 14 25 123 214 242 420 249 431 370 641 506
878 53 92 103 178 111 190 l15 24 32 -54 c18 -29 97 -162 176 -295 l143 -241
71 47 c39 26 105 69 146 96 41 26 76 49 78 51 2 1 -46 87 -106 191 -269 462
-352 608 -352 622 0 11 3 12 12 3 9 -9 15 -9 27 1 10 8 12 8 8 1 -9 -15 66
-23 90 -11 11 7 14 6 8 -3 -5 -8 0 -11 16 -10 13 1 26 1 29 0 10 -3 46 -9 90
-14 25 -3 53 -8 62 -11 9 -4 29 -8 45 -9 15 -2 35 -6 43 -9 8 -4 26 -8 40 -9
14 -2 30 -6 35 -9 6 -4 26 -9 46 -13 20 -3 84 -22 143 -41 59 -20 112 -32 118
-29 6 4 8 3 5 -3 -6 -9 30 -25 49 -22 4 0 10 -3 13 -9 3 -5 20 -14 36 -20 61
-22 144 -59 157 -69 7 -6 21 -9 31 -8 9 2 15 0 12 -4 -4 -8 30 -28 49 -29 5 0
12 -4 15 -9 17 -23 79 -44 65 -21 -4 7 -3 8 4 4 6 -4 9 -12 7 -19 -6 -14 43
-39 58 -30 6 3 7 1 3 -6 -4 -6 0 -14 11 -18 10 -3 26 -13 35 -20 9 -8 22 -12
29 -7 7 4 10 3 6 -3 -9 -14 61 -56 75 -47 6 4 8 3 5 -3 -4 -6 35 -41 86 -79
51 -37 97 -73 103 -79 7 -5 40 -35 75 -66 75 -66 241 -229 234 -229 -3 0 10
-15 30 -34 19 -19 35 -37 35 -40 0 -3 -35 19 -77 48 -174 119 -368 201 -540
231 -134 22 -192 27 -311 27 -129 0 -140 -1 -347 -36 -61 -11 -223 -68 -310
-111 -130 -63 -271 -176 -489 -390 -43 -42 -79 -75 -81 -73 -2 2 -78 76 -168
165 -105 105 -172 164 -188 165 -20 3 -33 -14 -101 -132 -43 -74 -78 -142 -78
-150 0 -9 42 -58 93 -110 181 -185 244 -269 296 -394 34 -82 121 -411 121
-458 0 -39 34 -72 60 -58 15 8 19 21 19 63 0 29 12 102 26 162 91 371 248 632
471 782 130 88 334 176 459 198 350 61 717 -27 955 -229 165 -141 321 -354
386 -528 48 -131 68 -247 67 -403 -2 -262 -66 -402 -356 -778 -59 -76 -107
-144 -107 -150 0 -7 15 -37 33 -67 18 -30 49 -84 69 -120 20 -36 44 -80 54
-98 28 -49 61 -53 97 -11 47 56 251 338 310 430 114 175 216 392 230 489 15
102 19 130 22 185 7 122 5 113 15 89 4 -11 9 -36 11 -55 2 -19 5 -38 8 -44 3
-5 6 -17 8 -25 1 -8 5 -35 9 -60 3 -25 8 -56 11 -70 2 -14 5 -32 5 -40 1 -8 6
-18 12 -22 8 -6 8 -8 -1 -8 -9 0 -11 -19 -3 -40 1 -3 2 -22 2 -43 -1 -25 2
-35 10 -31 7 5 8 3 3 -6 -9 -14 -13 -80 -5 -80 5 0 4 -206 -1 -280 -2 -22 3
-46 11 -57 14 -16 13 -17 -1 -5 -15 11 -17 8 -21 -22 -2 -18 -1 -46 3 -60 5
-17 4 -24 -3 -20 -6 4 -9 -5 -8 -22 2 -29 2 -37 -2 -51 -13 -56 -15 -90 -5
-102 9 -12 9 -13 0 -7 -7 4 -14 4 -14 -1 -1 -4 -3 -17 -4 -28 -2 -11 -8 -44
-14 -74 -6 -29 -8 -58 -4 -64 3 -5 1 -7 -4 -4 -11 7 -27 -49 -17 -64 3 -5 0
-9 -5 -9 -6 0 -11 -8 -11 -18 0 -10 -9 -46 -21 -80 -18 -53 -19 -65 -8 -80 12
-15 12 -16 -2 -4 -14 10 -18 10 -23 -3 -4 -11 -2 -14 7 -9 9 6 9 5 0 -7 -20
-25 -55 -128 -47 -140 4 -7 3 -9 -3 -6 -6 4 -14 -1 -18 -10 -3 -10 -1 -19 4
-21 6 -2 11 -8 11 -13 0 -4 -6 -6 -14 -3 -15 6 -40 -51 -29 -69 3 -5 1 -7 -5
-3 -6 3 -15 -9 -23 -31 -6 -21 -15 -40 -19 -43 -4 -3 -13 -17 -21 -32 -14 -27
-32 5 -888 1505 -481 843 -876 1534 -878 1536 -6 8 -303 -178 -303 -190 0 -7
227 -401 825 -1434 111 -192 236 -408 277 -480 41 -71 166 -287 278 -480 245
-422 242 -417 238 -420 -2 -2 -145 -5 -318 -7 l-315 -4 -3 -179 -2 -180 450 2
c247 2 450 1 450 -2 0 -2 -14 -20 -31 -39 -18 -22 -28 -40 -23 -48 4 -7 4 -10
-1 -6 -11 10 -78 -80 -69 -94 4 -6 3 -8 -4 -5 -5 4 -22 -8 -37 -25 -14 -18
-43 -53 -63 -77 -20 -24 -36 -47 -35 -52 2 -4 -4 -6 -12 -3 -8 4 -15 2 -15 -4
0 -5 -34 -42 -75 -82 -41 -40 -71 -78 -68 -83 3 -6 1 -7 -4 -4 -13 8 -36 -17
-25 -28 4 -5 1 -5 -5 -1 -7 4 -22 -2 -34 -13 -12 -11 -37 -32 -56 -48 -20 -15
-51 -42 -69 -60 -19 -17 -34 -29 -34 -26 0 3 -7 0 -15 -7 -8 -7 -13 -16 -10
-20 3 -4 -3 -7 -13 -6 -9 0 -16 -5 -14 -12 1 -8 -2 -11 -8 -7 -9 6 -76 -37
-92 -60 -5 -7 -8 -7 -8 0 0 7 -3 7 -8 0 -9 -14 -77 -57 -131 -85 -34 -17 -41
-24 -30 -32 11 -7 9 -8 -6 -4 -12 3 -35 -3 -55 -16 -35 -22 -40 -24 -61 -27
-5 0 -8 -5 -5 -10 3 -5 0 -8 -7 -8 -23 2 -117 -46 -110 -56 3 -6 1 -7 -5 -3
-7 4 -26 0 -44 -8 -18 -8 -43 -17 -56 -21 -12 -4 -19 -11 -16 -17 4 -6 3 -8
-3 -5 -8 5 -74 -14 -143 -40 -8 -4 -17 -7 -20 -7 -3 -1 -15 -7 -26 -14 -12 -6
-23 -9 -26 -7 -2 2 -33 -5 -69 -16 -35 -10 -84 -24 -109 -30 -25 -6 -54 -13
-65 -16 -11 -2 -26 -5 -32 -5 -7 -1 -13 -4 -13 -7 0 -3 -21 -7 -48 -8 -26 -2
-56 -5 -67 -7 -11 -2 -33 -5 -48 -5 -16 -1 -26 -5 -23 -9 3 -5 -9 -6 -25 -4
-26 4 -16 10 67 38 439 151 756 459 933 906 35 89 77 248 87 328 7 61 7 243 0
276 -2 12 -7 45 -11 75 -7 60 -59 320 -74 377 -6 20 -9 37 -8 38 2 2 43 12 92
23 358 82 375 87 375 116 0 18 -151 277 -169 291 -11 9 -32 7 -85 -8 -201 -56
-451 -84 -522 -57 -11 4 -34 9 -50 12 -62 10 -303 87 -399 127 -46 19 -77 13
-81 -17 -3 -15 9 -28 44 -51 63 -41 212 -196 294 -307 109 -146 204 -336 223
-445 22 -127 26 -270 10 -400 -43 -359 -308 -740 -619 -890 -88 -42 -238 -94
-307 -105 -24 -4 -53 -10 -64 -12 -51 -13 -324 -11 -400 3 -269 48 -514 195
-663 396 -60 81 -143 234 -203 373 -28 66 -56 126 -62 133 -7 9 -58 12 -193
12 -226 0 -221 4 -168 -127 53 -132 154 -336 219 -443 118 -195 215 -302 382
-420 70 -51 234 -150 246 -150 12 0 79 -32 75 -35 -3 -3 -31 2 -64 11 -77 20
-105 27 -126 28 -9 0 -14 4 -11 9 3 5 -1 7 -8 6 -8 -1 -27 3 -42 9 -16 7 -32
10 -37 7 -5 -3 -10 0 -12 6 -2 6 -16 12 -31 12 -15 1 -27 5 -27 8 0 6 -12 11
-55 24 -5 2 -27 10 -47 19 -21 9 -38 13 -38 9 0 -5 -4 -3 -8 2 -18 25 -81 47
-66 23 4 -7 3 -8 -5 -4 -6 4 -9 12 -6 17 6 8 -8 13 -27 10 -5 0 -8 3 -8 8 0 5
-9 13 -21 16 -11 4 -46 22 -79 40 -32 18 -61 31 -64 27 -3 -3 -6 0 -6 7 0 8
-6 11 -16 7 -8 -3 -13 -2 -10 3 5 8 -7 17 -27 19 -4 1 -15 8 -23 17 -9 8 -36
27 -62 42 -26 14 -55 33 -64 41 -9 8 -23 11 -30 6 -7 -4 -10 -4 -6 1 9 9 -2
19 -69 68 -29 21 -57 36 -63 32 -5 -3 -8 0 -5 7 3 7 -10 23 -27 35 -18 13 -48
36 -67 53 -18 16 -38 27 -45 23 -6 -3 -8 -3 -4 1 4 5 -55 70 -130 145 -75 76
-142 146 -149 157 -6 10 -16 18 -23 16 -6 -1 -9 2 -5 8 3 5 2 10 -4 10 -5 0
-13 9 -16 20 -4 11 -11 18 -16 15 -5 -3 -6 1 -3 9 4 11 0 16 -12 16 -9 0 -14
3 -11 6 4 4 -3 15 -15 25 -11 11 -17 19 -13 19 4 0 -2 9 -14 19 -12 11 -21 21
-19 23 6 7 -29 47 -36 41 -4 -4 -4 0 0 10 3 9 2 17 -4 17 -5 0 -12 7 -16 15
-6 16 -134 16 2762 0 700 -3 752 -3 753 13 9 107 13 331 7 337 -3 3 -740 6
-1637 6 l-1631 -1 11 23 c7 12 51 92 99 177 129 230 200 358 200 363 0 5 -294
177 -303 177 -5 0 -98 -157 -172 -291 -119 -215 -271 -469 -282 -473 -8 -3
-12 -2 -9 2 3 5 -5 29 -18 53 -13 24 -25 49 -27 54 -2 6 -7 9 -11 8 -4 -2 -5
4 -2 11 3 8 -2 29 -12 47 -9 18 -27 61 -39 96 -12 35 -25 60 -30 56 -4 -5 -5
-3 -2 4 4 6 2 24 -5 40 -6 15 -11 31 -10 35 1 4 -7 30 -18 58 -11 27 -17 50
-14 50 4 0 1 7 -6 15 -7 8 -10 15 -7 15 3 0 1 15 -4 33 -13 40 -12 38 -29 119
-8 42 -17 65 -24 61 -6 -4 -5 0 2 9 7 9 9 19 4 22 -5 3 -9 21 -10 41 -1 20 -4
41 -8 46 -3 6 -8 39 -10 72 -2 34 -4 77 -5 95 -1 17 -5 32 -8 32 -3 0 -6 108
-6 240 0 132 2 240 5 240 3 0 6 24 6 54 1 29 4 57 7 62 3 5 8 36 12 69 9 86
10 94 18 101 4 4 2 13 -4 21 -7 8 -8 13 -1 13 18 0 21 40 4 51 -16 10 -16 10
0 5 23 -7 36 67 16 92 -11 15 -11 16 3 4 15 -11 18 -8 23 23 4 19 4 40 0 47
-4 6 -3 8 3 5 6 -4 13 0 17 8 3 8 0 15 -7 16 -9 0 -9 2 1 6 6 2 12 13 12 23 0
10 5 22 11 26 8 4 7 9 -2 15 -9 6 -10 9 -2 9 6 0 21 30 34 68 12 37 26 73 32
80 6 8 6 12 -2 12 -8 0 -7 5 3 15 9 9 20 34 26 56 6 23 13 39 15 37 2 -2 -2
-28 -10 -58 -27 -109 -43 -248 -43 -385 0 -123 5 -172 32 -322 11 -58 72 -227
116 -318 81 -167 173 -297 309 -434 188 -190 336 -264 828 -416 14 -5 14 -5
-71 -269 -41 -127 -52 -174 -45 -188 10 -18 27 -20 274 -20 72 0 78 1 92 10 7
4 24 53 38 107 52 199 108 334 173 415 50 62 179 187 287 277 119 100 127 110
115 134 -13 23 -38 24 -66 5 -11 -8 -56 -26 -100 -40 -72 -22 -92 -27 -162
-41 -13 -2 -31 -6 -40 -9 -9 -3 -39 -8 -67 -11 -27 -3 -61 -7 -75 -10 -38 -8
-237 -8 -309 0 -210 22 -461 154 -641 334 -146 146 -253 343 -311 568 -29 113
-35 319 -12 438 57 307 224 589 448 760 104 80 301 176 390 190 86 14 131 18
205 19 90 0 268 -11 309 -19 20 -4 174 -26 191 -27 41 -3 51 7 127 129 93 151
95 156 80 177 -12 16 -17 18 -97 31 -25 4 -52 9 -60 10 -8 1 -55 6 -105 10
-49 4 -94 9 -98 12 -15 9 -501 12 -557 4 -30 -5 -74 -12 -98 -16 -145 -22
-367 -131 -521 -255 -41 -34 -67 -48 -73 -42 -6 6 -5 12 3 17 8 5 10 4 5 -3
-4 -7 -3 -12 3 -12 6 0 15 10 22 21 6 12 24 35 40 50 16 16 29 34 29 40 0 7 3
10 6 7 7 -8 80 72 77 83 -2 5 5 5 14 2 10 -4 14 -2 9 5 -3 6 3 13 14 17 11 4
18 10 16 14 -3 4 8 15 25 25 16 10 26 22 23 28 -4 6 -2 8 4 4 6 -3 17 2 24 12
7 10 21 21 31 25 11 4 15 12 11 18 -4 7 -3 9 3 6 5 -3 28 12 51 34 23 21 42
36 42 33 0 -3 7 2 16 11 9 8 43 34 75 56 33 22 57 44 54 48 -2 5 3 8 13 7 9 0
16 5 14 12 -1 8 2 11 8 7 5 -3 36 11 67 31 67 43 154 92 233 131 30 15 57 31
58 35 2 4 12 8 21 8 10 0 21 3 25 8 4 4 11 7 14 8 4 0 27 9 52 21 25 11 62 26
83 34 20 7 37 17 37 22 0 4 4 6 9 3 7 -5 123 33 161 53 8 4 23 7 33 5 9 -1 17
2 17 7 0 5 3 8 8 8 18 -4 92 15 92 23 0 5 4 7 10 3 5 -3 40 2 77 10 37 9 79
18 93 20 77 13 96 18 102 28 6 9 8 9 8 0 0 -7 5 -13 11 -13 5 0 8 3 6 8 -3 4
16 8 41 8 91 3 162 8 162 14 0 3 18 5 39 5 36 0 38 -1 29 -20z m-677 -58 c-10
-9 -11 -8 -5 6 3 10 9 15 12 12 3 -3 0 -11 -7 -18z m1634 -7 c3 -6 -1 -7 -9
-4 -18 7 -21 14 -7 14 6 0 13 -4 16 -10z m-1760 -40 c3 -6 -1 -7 -9 -4 -18 7
-21 14 -7 14 6 0 13 -4 16 -10z m2095 -54 c0 -3 -4 -8 -10 -11 -5 -3 -10 -1
-10 4 0 6 5 11 10 11 6 0 10 -2 10 -4z m810 -42 c0 -8 -19 -13 -24 -6 -3 5 1
9 9 9 8 0 15 -2 15 -3z m-575 -84 c3 -5 1 -10 -4 -10 -6 0 -11 5 -11 10 0 6 2
10 4 10 3 0 8 -4 11 -10z m-3481 -86 c3 -8 2 -12 -4 -9 -6 3 -10 10 -10 16 0
14 7 11 14 -7z m3821 -83 c3 -5 2 -12 -3 -15 -5 -3 -9 1 -9 9 0 17 3 19 12 6z
m-3925 -7 c0 -8 -19 -13 -24 -6 -3 5 1 9 9 9 8 0 15 -2 15 -3z m4565 -132 c-3
-3 -11 0 -18 7 -9 10 -8 11 6 5 10 -3 15 -9 12 -12z m-4759 -28 c1 -9 0 -13
-4 -10 -3 4 -7 14 -8 22 -1 9 0 13 4 10 3 -4 7 -14 8 -22z m164 -324 c0 -5 -5
-10 -11 -10 -5 0 -7 5 -4 10 3 6 8 10 11 10 2 0 4 -4 4 -10z m4534 -66 c3 -8
2 -12 -4 -9 -6 3 -10 10 -10 16 0 14 7 11 14 -7z m441 -23 c3 -5 2 -12 -3 -15
-5 -3 -9 1 -9 9 0 17 3 19 12 6z m-5555 -91 c0 -5 -2 -10 -4 -10 -3 0 -8 5
-11 10 -3 6 -1 10 4 10 6 0 11 -4 11 -10z m5635 -39 c3 -5 2 -12 -3 -15 -5 -3
-9 1 -9 9 0 17 3 19 12 6z m80 -101 c3 -5 1 -10 -4 -10 -6 0 -11 5 -11 10 0 6
2 10 4 10 3 0 8 -4 11 -10z m-5895 -236 c0 -8 -19 -13 -24 -6 -3 5 1 9 9 9 8
0 15 -2 15 -3z m310 -120 c0 -8 -19 -13 -24 -6 -3 5 1 9 9 9 8 0 15 -2 15 -3z
m-410 -144 c0 -5 -2 -10 -4 -10 -3 0 -8 5 -11 10 -3 6 -1 10 4 10 6 0 11 -4
11 -10z m6273 -155 c-3 -9 -8 -14 -10 -11 -3 3 -2 9 2 15 9 16 15 13 8 -4z
m-273 -345 c0 -5 -5 -10 -11 -10 -5 0 -7 5 -4 10 3 6 8 10 11 10 2 0 4 -4 4
-10z m360 -100 c0 -5 -5 -10 -11 -10 -5 0 -7 5 -4 10 3 6 8 10 11 10 2 0 4 -4
4 -10z m-275 -200 c3 -6 -1 -7 -9 -4 -18 7 -21 14 -7 14 6 0 13 -4 16 -10z
m330 -60 c3 -5 1 -10 -4 -10 -6 0 -11 5 -11 10 0 6 2 10 4 10 3 0 8 -4 11 -10z
m-6635 -114 c0 -3 -4 -8 -10 -11 -5 -3 -10 -1 -10 4 0 6 5 11 10 11 6 0 10 -2
10 -4z m6660 -20 c0 -3 -4 -8 -10 -11 -5 -3 -10 -1 -10 4 0 6 5 11 10 11 6 0
10 -2 10 -4z m-340 -140 c0 -2 -7 -7 -16 -10 -8 -3 -12 -2 -9 4 6 10 25 14 25
6z m-6315 -166 c-3 -5 -12 -10 -18 -10 -7 0 -6 4 3 10 19 12 23 12 15 0z
m6275 -120 c0 -5 -5 -10 -11 -10 -5 0 -7 5 -4 10 3 6 8 10 11 10 2 0 4 -4 4
-10z m355 -128 c-3 -3 -11 0 -18 7 -9 10 -8 11 6 5 10 -3 15 -9 12 -12z
m-6295 -12 c0 -5 -5 -10 -11 -10 -5 0 -7 5 -4 10 3 6 8 10 11 10 2 0 4 -4 4
-10z m6276 -116 c1 -9 0 -13 -4 -10 -3 4 -7 14 -8 22 -1 9 0 13 4 10 3 -4 7
-14 8 -22z m-6520 -244 c0 -12 -4 -16 -9 -11 -5 5 -6 14 -3 20 10 15 12 14 12
-9z m6469 -20 c3 -6 -1 -7 -9 -4 -18 7 -21 14 -7 14 6 0 13 -4 16 -10z m-360
-80 c-3 -5 -12 -10 -18 -10 -7 0 -6 4 3 10 19 12 23 12 15 0z m-45 -20 c0 -5
-2 -10 -4 -10 -3 0 -8 5 -11 10 -3 6 -1 10 4 10 6 0 11 -4 11 -10z m-5681 -13
c-2 -1 -13 -9 -24 -17 -19 -14 -19 -14 -6 3 7 9 18 17 24 17 6 0 8 -1 6 -3z
m6056 -27 c3 -5 1 -10 -4 -10 -6 0 -11 5 -11 10 0 6 2 10 4 10 3 0 8 -4 11
-10z m-6404 -73 c-10 -9 -11 -8 -5 6 3 10 9 15 12 12 3 -3 0 -11 -7 -18z m379
19 c0 -2 -8 -10 -17 -17 -16 -13 -17 -12 -4 4 13 16 21 21 21 13z m5635 -46
c10 -11 16 -20 13 -20 -3 0 -13 9 -23 20 -10 11 -16 20 -13 20 3 0 13 -9 23
-20z m-5600 -60 c3 -6 -1 -7 -9 -4 -18 7 -21 14 -7 14 6 0 13 -4 16 -10z
m5855 -214 c0 -3 -4 -8 -10 -11 -5 -3 -10 -1 -10 4 0 6 5 11 10 11 6 0 10 -2
10 -4z m-6145 -35 c3 -5 2 -12 -3 -15 -5 -3 -9 1 -9 9 0 17 3 19 12 6z m6043
-156 c-3 -3 -9 2 -12 12 -6 14 -5 15 5 6 7 -7 10 -15 7 -18z m-5918 -60 c0 -5
-5 -3 -10 5 -5 8 -10 20 -10 25 0 6 5 3 10 -5 5 -8 10 -19 10 -25z m117 -220
c0 -8 -4 -12 -9 -9 -5 3 -6 10 -3 15 9 13 12 11 12 -6z m5603 -39 c0 -2 -8
-10 -17 -17 -16 -13 -17 -12 -4 4 13 16 21 21 21 13z m-389 -29 c-10 -9 -11
-8 -5 6 3 10 9 15 12 12 3 -3 0 -11 -7 -18z m-5136 -36 c3 -5 2 -12 -3 -15 -5
-3 -9 1 -9 9 0 17 3 19 12 6z m45 -91 c0 -5 -2 -10 -4 -10 -3 0 -8 5 -11 10
-3 6 -1 10 4 10 6 0 11 -4 11 -10z m538 -105 c-3 -3 -9 2 -12 12 -6 14 -5 15
5 6 7 -7 10 -15 7 -18z m4339 -20 c0 -8 -4 -12 -9 -9 -5 3 -6 10 -3 15 9 13
12 11 12 -6z m321 -105 c-7 -10 -14 -17 -17 -15 -4 4 18 35 25 35 2 0 -1 -9
-8 -20z m-523 -59 c3 -5 2 -12 -3 -15 -5 -3 -9 1 -9 9 0 17 3 19 12 6z m-38
-16 c0 -8 -4 -12 -9 -9 -5 3 -6 10 -3 15 9 13 12 11 12 -6z m498 5 c3 -5 1
-10 -4 -10 -6 0 -11 5 -11 10 0 6 2 10 4 10 3 0 8 -4 11 -10z m-4184 -173
c-10 -9 -11 -8 -5 6 3 10 9 15 12 12 3 -3 0 -11 -7 -18z m-451 -61 c0 -2 -7
-7 -16 -10 -8 -3 -12 -2 -9 4 6 10 25 14 25 6z m3820 -26 c0 -5 -2 -10 -4 -10
-3 0 -8 5 -11 10 -3 6 -1 10 4 10 6 0 11 -4 11 -10z m360 -154 c0 -3 -4 -8
-10 -11 -5 -3 -10 -1 -10 4 0 6 5 11 10 11 6 0 10 -2 10 -4z m-700 -26 c0 -5
-5 -10 -11 -10 -5 0 -7 5 -4 10 3 6 8 10 11 10 2 0 4 -4 4 -10z m-2485 -29 c3
-5 2 -12 -3 -15 -5 -3 -9 1 -9 9 0 17 3 19 12 6z m2385 -5 c0 -3 -4 -8 -10
-11 -5 -3 -10 -1 -10 4 0 6 5 11 10 11 6 0 10 -2 10 -4z m-85 -66 c3 -5 1 -10
-4 -10 -6 0 -11 5 -11 10 0 6 2 10 4 10 3 0 8 -4 11 -10z m-58 -25 c0 -8 -4
-12 -9 -9 -5 3 -6 10 -3 15 9 13 12 11 12 -6z m-1862 -55 c3 -5 1 -10 -4 -10
-6 0 -11 5 -11 10 0 6 2 10 4 10 3 0 8 -4 11 -10z m45 0 c0 -5 -5 -10 -11 -10
-5 0 -7 5 -4 10 3 6 8 10 11 10 2 0 4 -4 4 -10z m1560 -40 c0 -5 -2 -10 -4
-10 -3 0 -8 5 -11 10 -3 6 -1 10 4 10 6 0 11 -4 11 -10z m-127 -15 c-3 -9 -8
-14 -10 -11 -3 3 -2 9 2 15 9 16 15 13 8 -4z m-1303 -1 c0 -8 -19 -13 -24 -6
-3 5 1 9 9 9 8 0 15 -2 15 -3z m1140 -4 c-8 -5 -19 -10 -25 -10 -5 0 -3 5 5
10 8 5 20 10 25 10 6 0 3 -5 -5 -10z m-956 -26 c3 -8 2 -12 -4 -9 -6 3 -10 10
-10 16 0 14 7 11 14 -7z m-1034 2 c0 -2 -8 -10 -17 -17 -16 -13 -17 -12 -4 4
13 16 21 21 21 13z m1110 -16 c8 -5 11 -10 5 -10 -5 0 -17 5 -25 10 -8 5 -10
10 -5 10 6 0 17 -5 25 -10z m-1037 -15 c-3 -9 -8 -14 -10 -11 -3 3 -2 9 2 15
9 16 15 13 8 -4z m2762 -44 c3 -5 2 -12 -3 -15 -5 -3 -9 1 -9 9 0 17 3 19 12
6z m45 -1 c0 -5 -5 -10 -11 -10 -5 0 -7 5 -4 10 3 6 8 10 11 10 2 0 4 -4 4
-10z m-2722 -25 c-3 -3 -9 2 -12 12 -6 14 -5 15 5 6 7 -7 10 -15 7 -18z m197
-74 c3 -5 2 -12 -3 -15 -5 -3 -9 1 -9 9 0 17 3 19 12 6z m2165 -15 c0 -3 -4
-8 -10 -11 -5 -3 -10 -1 -10 4 0 6 5 11 10 11 6 0 10 -2 10 -4z m-1905 -65 c3
-5 2 -12 -3 -15 -5 -3 -9 1 -9 9 0 17 3 19 12 6z m185 -15 c0 -3 -4 -8 -10
-11 -5 -3 -10 -1 -10 4 0 6 5 11 10 11 6 0 10 -2 10 -4z m1520 -6 c0 -5 -2
-10 -4 -10 -3 0 -8 5 -11 10 -3 6 -1 10 4 10 6 0 11 -4 11 -10z m-1439 -17
c13 -16 12 -17 -3 -4 -10 7 -18 15 -18 17 0 8 8 3 21 -13z m232 -58 c-3 -9 -8
-14 -10 -11 -3 3 -2 9 2 15 9 16 15 13 8 -4z m47 -5 c0 -5 -2 -10 -4 -10 -3 0
-8 5 -11 10 -3 6 -1 10 4 10 6 0 11 -4 11 -10z m400 6 c0 -3 -4 -8 -10 -11 -5
-3 -10 -1 -10 4 0 6 5 11 10 11 6 0 10 -2 10 -4z m-127 -21 c-3 -9 -8 -14 -10
-11 -3 3 -2 9 2 15 9 16 15 13 8 -4z"/>
</g>
</svg>
